<svg width="213" height="190" viewBox="0 0 213 190" fill="none" xmlns="http://www.w3.org/2000/svg">
<g opacity="0.5" clip-path="url(#clip0_106_2171)">
<path d="M107.623 1.29654C107.678 1.29654 107.723 1.2519 107.723 1.19683C107.723 1.14175 107.678 1.09711 107.623 1.09711C107.568 1.09711 107.524 1.14175 107.524 1.19683C107.524 1.2519 107.568 1.29654 107.623 1.29654Z" fill="#50EA97"/>
<path d="M125.479 1.44446C125.616 1.44446 125.726 1.33367 125.726 1.19702C125.726 1.06037 125.616 0.949585 125.479 0.949585C125.342 0.949585 125.231 1.06037 125.231 1.19702C125.231 1.33367 125.342 1.44446 125.479 1.44446Z" fill="#50EA97"/>
<path d="M143.332 1.59419C143.437 1.59419 143.538 1.55236 143.613 1.47788C143.687 1.40341 143.729 1.30238 143.729 1.19706C143.729 1.09173 143.687 0.990708 143.613 0.916233C143.538 0.841758 143.437 0.799927 143.332 0.799927C143.226 0.799927 143.125 0.841758 143.051 0.916233C142.976 0.990708 142.935 1.09173 142.935 1.19706C142.935 1.30238 142.976 1.40341 143.051 1.47788C143.125 1.55236 143.226 1.59419 143.332 1.59419Z" fill="#50EA97"/>
<path d="M161.2 1.64354C161.288 1.64354 161.375 1.61731 161.448 1.56822C161.522 1.51912 161.579 1.44935 161.613 1.36772C161.647 1.28608 161.655 1.19628 161.638 1.10962C161.621 1.02295 161.578 0.943349 161.516 0.880868C161.453 0.818387 161.374 0.775816 161.287 0.758578C161.2 0.741339 161.111 0.750214 161.029 0.784028C160.947 0.817842 160.878 0.875076 160.828 0.948546C160.779 1.02202 160.753 1.1084 160.753 1.19676C160.753 1.31525 160.8 1.42887 160.884 1.51266C160.968 1.59644 161.081 1.64354 161.2 1.64354Z" fill="#50EA97"/>
<path d="M179.058 1.59419C179.163 1.59419 179.264 1.55236 179.338 1.47788C179.413 1.40341 179.455 1.30238 179.455 1.19706C179.455 1.09173 179.413 0.990708 179.338 0.916233C179.264 0.841758 179.163 0.799927 179.058 0.799927C178.952 0.799927 178.851 0.841758 178.777 0.916233C178.702 0.990708 178.66 1.09173 178.66 1.19706C178.66 1.30238 178.702 1.40341 178.777 1.47788C178.851 1.55236 178.952 1.59419 179.058 1.59419Z" fill="#50EA97"/>
<path d="M196.919 1.49429C196.978 1.49429 197.036 1.47683 197.085 1.44411C197.134 1.41138 197.172 1.36488 197.194 1.31046C197.217 1.25603 197.223 1.19614 197.211 1.13836C197.2 1.08059 197.171 1.0275 197.13 0.98585C197.088 0.944197 197.035 0.915841 196.977 0.904349C196.92 0.892857 196.86 0.898735 196.805 0.921278C196.751 0.943821 196.704 0.982015 196.672 1.03099C196.639 1.07997 196.621 1.13755 196.621 1.19646C196.62 1.23604 196.626 1.27557 196.64 1.3125C196.655 1.34943 196.677 1.38295 196.705 1.41097C196.733 1.43899 196.766 1.46089 196.803 1.47524C196.84 1.48958 196.88 1.49605 196.919 1.49429Z" fill="#50EA97"/>
<path d="M71.8889 19.2035C71.9712 19.2035 72.0378 19.1369 72.0378 19.0546C72.0378 18.9724 71.9712 18.9057 71.8889 18.9057C71.8067 18.9057 71.74 18.9724 71.74 19.0546C71.74 19.1369 71.8067 19.2035 71.8889 19.2035Z" fill="#50EA97"/>
<path d="M89.7483 19.502C89.995 19.502 90.195 19.302 90.195 19.0553C90.195 18.8085 89.995 18.6085 89.7483 18.6085C89.5015 18.6085 89.3015 18.8085 89.3015 19.0553C89.3015 19.302 89.5015 19.502 89.7483 19.502Z" fill="#50EA97"/>
<path d="M107.609 19.8982C107.833 19.8982 108.047 19.8092 108.206 19.651C108.364 19.4927 108.453 19.2781 108.453 19.0543C108.453 18.8305 108.364 18.6158 108.206 18.4576C108.047 18.2993 107.833 18.2104 107.609 18.2104C107.385 18.2104 107.171 18.2993 107.012 18.4576C106.854 18.6158 106.765 18.8305 106.765 19.0543C106.765 19.2781 106.854 19.4927 107.012 19.651C107.171 19.8092 107.385 19.8982 107.609 19.8982Z" fill="#50EA97"/>
<path d="M125.464 20.1472C125.68 20.1496 125.893 20.0877 126.074 19.9692C126.255 19.8507 126.397 19.681 126.482 19.4817C126.566 19.2824 126.59 19.0624 126.549 18.8498C126.508 18.6371 126.405 18.4413 126.253 18.2874C126.101 18.1334 125.906 18.0281 125.694 17.985C125.482 17.9418 125.261 17.9627 125.061 18.045C124.861 18.1273 124.69 18.2673 124.569 18.4471C124.448 18.627 124.384 18.8386 124.384 19.0551C124.382 19.1979 124.409 19.3397 124.463 19.4721C124.516 19.6045 124.595 19.725 124.696 19.8266C124.796 19.9281 124.916 20.0088 125.048 20.0638C125.18 20.1188 125.321 20.1472 125.464 20.1472Z" fill="#50EA97"/>
<path d="M143.337 20.2965C143.583 20.2965 143.823 20.2237 144.027 20.0874C144.231 19.951 144.39 19.7572 144.484 19.5304C144.578 19.3037 144.602 19.0542 144.554 18.8134C144.506 18.5727 144.388 18.3516 144.215 18.178C144.041 18.0044 143.82 17.8862 143.579 17.8384C143.339 17.7905 143.089 17.8151 142.862 17.909C142.636 18.0029 142.442 18.162 142.305 18.3661C142.169 18.5702 142.096 18.8101 142.096 19.0555C142.096 19.3847 142.227 19.7003 142.46 19.933C142.692 20.1658 143.008 20.2965 143.337 20.2965Z" fill="#50EA97"/>
<path d="M161.196 20.3963C161.441 20.3963 161.681 20.3235 161.885 20.1872C162.089 20.0508 162.248 19.857 162.342 19.6302C162.436 19.4035 162.461 19.1539 162.413 18.9132C162.365 18.6725 162.247 18.4514 162.073 18.2778C161.9 18.1042 161.679 17.986 161.438 17.9382C161.197 17.8903 160.948 17.9148 160.721 18.0088C160.494 18.1027 160.3 18.2618 160.164 18.4658C160.028 18.6699 159.955 18.9099 159.955 19.1553C159.955 19.4844 160.086 19.8001 160.318 20.0328C160.551 20.2655 160.867 20.3963 161.196 20.3963Z" fill="#50EA97"/>
<path d="M179.054 20.2965C179.3 20.2965 179.54 20.2237 179.744 20.0874C179.948 19.951 180.107 19.7572 180.201 19.5304C180.295 19.3037 180.319 19.0542 180.271 18.8134C180.224 18.5727 180.105 18.3516 179.932 18.178C179.758 18.0044 179.537 17.8862 179.296 17.8384C179.056 17.7905 178.806 17.8151 178.579 17.909C178.353 18.0029 178.159 18.162 178.022 18.3661C177.886 18.5702 177.813 18.8101 177.813 19.0555C177.813 19.3847 177.944 19.7003 178.177 19.933C178.409 20.1658 178.725 20.2965 179.054 20.2965Z" fill="#50EA97"/>
<path d="M196.928 20.1472C197.144 20.1472 197.355 20.0832 197.535 19.9632C197.714 19.8432 197.854 19.6726 197.937 19.4731C198.02 19.2735 198.041 19.0539 197.999 18.8421C197.957 18.6303 197.853 18.4357 197.7 18.2829C197.548 18.1302 197.353 18.0262 197.141 17.9841C196.929 17.9419 196.71 17.9635 196.51 18.0462C196.311 18.1289 196.14 18.2688 196.02 18.4484C195.9 18.628 195.836 18.8392 195.836 19.0552C195.834 19.199 195.861 19.3418 195.916 19.475C195.97 19.6083 196.05 19.7293 196.152 19.8311C196.254 19.9328 196.375 20.0132 196.508 20.0675C196.641 20.1218 196.784 20.1489 196.928 20.1472Z" fill="#50EA97"/>
<path d="M54.0314 37.1593C54.168 37.1593 54.2788 37.0485 54.2788 36.9119C54.2788 36.7752 54.168 36.6644 54.0314 36.6644C53.8947 36.6644 53.7839 36.7752 53.7839 36.9119C53.7839 37.0485 53.8947 37.1593 54.0314 37.1593Z" fill="#50EA97"/>
<path d="M71.886 37.6577C71.9826 37.6594 72.0785 37.6416 72.1681 37.6054C72.2577 37.5692 72.3391 37.5153 72.4074 37.447C72.4758 37.3787 72.5296 37.2973 72.5658 37.2077C72.602 37.1181 72.6198 37.0221 72.6182 36.9255C72.6198 36.8283 72.6021 36.7318 72.566 36.6415C72.53 36.5512 72.4763 36.469 72.4081 36.3997C72.34 36.3304 72.2587 36.2754 72.1691 36.2378C72.0794 36.2002 71.9832 36.1809 71.886 36.1809C71.7882 36.1809 71.6914 36.2002 71.601 36.2376C71.5107 36.275 71.4286 36.3298 71.3594 36.399C71.2903 36.4681 71.2355 36.5502 71.198 36.6406C71.1606 36.7309 71.1414 36.8277 71.1414 36.9255C71.1413 37.0227 71.1607 37.119 71.1983 37.2086C71.2358 37.2983 71.2909 37.3795 71.3602 37.4477C71.4295 37.5159 71.5117 37.5695 71.602 37.6056C71.6922 37.6416 71.7888 37.6594 71.886 37.6577Z" fill="#50EA97"/>
<path d="M89.7527 38.1539C90.4381 38.1539 90.9937 37.5983 90.9937 36.9129C90.9937 36.2275 90.4381 35.6719 89.7527 35.6719C89.0673 35.6719 88.5117 36.2275 88.5117 36.9129C88.5117 37.5983 89.0673 38.1539 89.7527 38.1539Z" fill="#50EA97"/>
<path d="M107.618 38.5501C108.523 38.5501 109.256 37.8166 109.256 36.9119C109.256 36.0072 108.523 35.2738 107.618 35.2738C106.713 35.2738 105.98 36.0072 105.98 36.9119C105.98 37.8166 106.713 38.5501 107.618 38.5501Z" fill="#50EA97"/>
<path d="M125.469 38.8496C125.853 38.8521 126.229 38.7403 126.549 38.5285C126.87 38.3168 127.12 38.0145 127.268 37.6603C127.416 37.306 127.455 36.9158 127.381 36.5391C127.307 36.1624 127.122 35.8163 126.851 35.5448C126.579 35.2733 126.233 35.0886 125.856 35.0143C125.48 34.94 125.089 34.9794 124.735 35.1275C124.381 35.2755 124.079 35.5256 123.867 35.8458C123.655 36.1661 123.543 36.5421 123.546 36.9261C123.546 37.4362 123.748 37.9255 124.109 38.2862C124.47 38.647 124.959 38.8496 125.469 38.8496Z" fill="#50EA97"/>
<path d="M143.335 39.0106C143.757 39.0106 144.171 38.8851 144.522 38.65C144.873 38.4149 145.147 38.0808 145.308 37.69C145.469 37.2993 145.511 36.8694 145.427 36.455C145.344 36.0406 145.139 35.6603 144.84 35.3623C144.54 35.0643 144.158 34.862 143.744 34.781C143.329 34.7001 142.899 34.7441 142.509 34.9076C142.119 35.0711 141.787 35.3466 141.554 35.6992C141.321 36.0519 141.198 36.4658 141.2 36.8885C141.204 37.4524 141.43 37.9922 141.83 38.3898C142.23 38.7874 142.771 39.0106 143.335 39.0106Z" fill="#50EA97"/>
<path d="M161.194 39.0966C161.627 39.0965 162.05 38.9681 162.409 38.7276C162.768 38.487 163.048 38.1452 163.213 37.7453C163.378 37.3455 163.421 36.9057 163.335 36.4817C163.25 36.0577 163.041 35.6685 162.734 35.3635C162.428 35.0586 162.037 34.8515 161.613 34.7687C161.188 34.6858 160.749 34.7308 160.35 34.8981C159.951 35.0653 159.611 35.3471 159.372 35.708C159.134 36.0688 159.008 36.4923 159.01 36.9248C159.01 37.211 159.067 37.4944 159.177 37.7587C159.286 38.0231 159.448 38.263 159.651 38.4648C159.854 38.6667 160.094 38.8264 160.359 38.9348C160.624 39.0432 160.908 39.0982 161.194 39.0966Z" fill="#50EA97"/>
<path d="M179.048 39.0105C179.471 39.013 179.886 38.8896 180.239 38.656C180.592 38.4224 180.867 38.0891 181.03 37.6986C181.193 37.3081 181.237 36.8779 181.155 36.4627C181.073 36.0475 180.869 35.666 180.57 35.3667C180.271 35.0675 179.889 34.8639 179.474 34.7819C179.059 34.7 178.629 34.7433 178.238 34.9064C177.847 35.0695 177.514 35.345 177.281 35.6979C177.047 36.0508 176.924 36.4652 176.926 36.8884C176.929 37.4503 177.154 37.9881 177.551 38.3854C177.948 38.7827 178.486 39.0073 179.048 39.0105Z" fill="#50EA97"/>
<path d="M196.925 38.8496C197.308 38.8496 197.683 38.7358 198.002 38.5225C198.32 38.3092 198.568 38.0061 198.715 37.6517C198.861 37.2972 198.898 36.9073 198.823 36.5314C198.747 36.1555 198.561 35.8106 198.289 35.5403C198.017 35.2701 197.671 35.0867 197.295 35.0134C196.918 34.9401 196.529 34.9802 196.175 35.1287C195.822 35.2771 195.52 35.5272 195.309 35.8471C195.098 36.1671 194.986 36.5427 194.989 36.9261C194.989 37.1797 195.039 37.4309 195.136 37.6651C195.234 37.8993 195.377 38.1119 195.557 38.2906C195.737 38.4694 195.95 38.6109 196.185 38.7068C196.42 38.8027 196.671 38.8513 196.925 38.8496Z" fill="#50EA97"/>
<path d="M36.1639 55.03C36.3006 55.03 36.4114 54.9192 36.4114 54.7825C36.4114 54.6459 36.3006 54.5351 36.1639 54.5351C36.0273 54.5351 35.9165 54.6459 35.9165 54.7825C35.9165 54.9192 36.0273 55.03 36.1639 55.03Z" fill="#50EA97"/>
<path d="M54.0202 55.6274C54.1871 55.6274 54.3502 55.5779 54.489 55.4852C54.6278 55.3925 54.7359 55.2607 54.7998 55.1065C54.8637 54.9523 54.8804 54.7826 54.8478 54.6189C54.8153 54.4552 54.7349 54.3048 54.6169 54.1868C54.4988 54.0688 54.3485 53.9884 54.1848 53.9559C54.0211 53.9233 53.8514 53.94 53.6972 54.0039C53.543 54.0677 53.4112 54.1759 53.3185 54.3147C53.2258 54.4535 53.1763 54.6166 53.1763 54.7835C53.1763 55.0073 53.2652 55.222 53.4234 55.3802C53.5817 55.5385 53.7963 55.6274 54.0202 55.6274Z" fill="#50EA97"/>
<path d="M71.8932 56.2232C72.6882 56.2232 73.3327 55.5787 73.3327 54.7837C73.3327 53.9886 72.6882 53.3441 71.8932 53.3441C71.0981 53.3441 70.4536 53.9886 70.4536 54.7837C70.4536 55.5787 71.0981 56.2232 71.8932 56.2232Z" fill="#50EA97"/>
<path d="M89.7538 56.7569C90.2517 56.7174 90.7164 56.4918 91.0554 56.1249C91.3943 55.7581 91.5826 55.2769 91.5826 54.7775C91.5826 54.278 91.3943 53.7969 91.0554 53.4301C90.7164 53.0632 90.2517 52.8375 89.7538 52.7981C89.4807 52.7764 89.206 52.8115 88.9471 52.9012C88.6883 52.9909 88.4507 53.1331 88.2495 53.319C88.0483 53.505 87.8877 53.7305 87.7779 53.9815C87.668 54.2325 87.6113 54.5035 87.6113 54.7775C87.6113 55.0515 87.668 55.3225 87.7779 55.5735C87.8877 55.8245 88.0483 56.05 88.2495 56.2359C88.4507 56.4219 88.6883 56.5641 88.9471 56.6538C89.206 56.7434 89.4807 56.7785 89.7538 56.7569Z" fill="#50EA97"/>
<path d="M107.61 57.2029C108.104 57.2152 108.59 57.0802 109.006 56.8151C109.422 56.5499 109.75 56.1668 109.947 55.7145C110.145 55.2622 110.203 54.7613 110.114 54.2758C110.025 53.7903 109.794 53.3423 109.45 52.989C109.105 52.6356 108.663 52.393 108.18 52.2921C107.697 52.1912 107.195 52.2366 106.738 52.4225C106.28 52.6083 105.889 52.9263 105.613 53.3357C105.338 53.7451 105.191 54.2274 105.19 54.7209C105.19 55.3685 105.443 55.9906 105.895 56.4543C106.347 56.918 106.963 57.1867 107.61 57.2029Z" fill="#50EA97"/>
<path d="M125.479 57.5504C127.008 57.5504 128.247 56.3114 128.247 54.783C128.247 53.2546 127.008 52.0156 125.479 52.0156C123.951 52.0156 122.712 53.2546 122.712 54.783C122.712 56.3114 123.951 57.5504 125.479 57.5504Z" fill="#50EA97"/>
<path d="M143.337 57.7502C144.975 57.7502 146.303 56.4223 146.303 54.7842C146.303 53.1461 144.975 51.8182 143.337 51.8182C141.699 51.8182 140.371 53.1461 140.371 54.7842C140.371 56.4223 141.699 57.7502 143.337 57.7502Z" fill="#50EA97"/>
<path d="M161.197 57.8482C161.807 57.8507 162.403 57.672 162.911 57.3347C163.419 56.9975 163.816 56.517 164.05 55.9541C164.285 55.3912 164.347 54.7714 164.228 54.1732C164.11 53.575 163.817 53.0255 163.386 52.5943C162.954 52.1631 162.405 51.8698 161.807 51.7514C161.208 51.6331 160.589 51.695 160.026 51.9295C159.463 52.164 158.982 52.5604 158.645 53.0684C158.308 53.5764 158.129 54.1732 158.132 54.7829C158.132 55.5959 158.455 56.3756 159.029 56.9504C159.604 57.5253 160.384 57.8482 161.197 57.8482Z" fill="#50EA97"/>
<path d="M179.058 57.7495C179.648 57.7519 180.226 57.579 180.718 57.2527C181.209 56.9264 181.593 56.4613 181.82 55.9166C182.047 55.3719 182.107 54.772 181.992 54.1931C181.878 53.6142 181.594 53.0823 181.177 52.665C180.759 52.2477 180.228 51.9638 179.649 51.8493C179.07 51.7348 178.47 51.7948 177.925 52.0218C177.38 52.2487 176.915 52.6324 176.589 53.1241C176.263 53.6158 176.09 54.1933 176.092 54.7835C176.096 55.5691 176.409 56.3216 176.965 56.8771C177.52 57.4327 178.273 57.7462 179.058 57.7495Z" fill="#50EA97"/>
<path d="M196.926 57.552C197.476 57.552 198.014 57.3887 198.471 57.0827C198.929 56.7767 199.285 56.3417 199.495 55.8331C199.705 55.3244 199.759 54.7648 199.651 54.2253C199.543 53.6857 199.277 53.1904 198.887 52.8021C198.497 52.4139 198 52.1501 197.46 52.0442C196.92 51.9384 196.361 51.9952 195.853 52.2075C195.345 52.4198 194.912 52.778 194.608 53.2368C194.304 53.6956 194.143 54.2342 194.146 54.7846C194.146 55.149 194.218 55.5099 194.358 55.8465C194.497 56.1831 194.702 56.4887 194.961 56.7459C195.219 57.003 195.526 57.2066 195.863 57.3449C196.2 57.4833 196.561 57.5536 196.926 57.552Z" fill="#50EA97"/>
<path d="M214.784 57.2036C215.275 57.2036 215.755 57.0581 216.163 56.7853C216.571 56.5126 216.89 56.125 217.077 55.6714C217.265 55.2179 217.314 54.7189 217.219 54.2374C217.123 53.7559 216.887 53.3137 216.539 52.9666C216.192 52.6195 215.75 52.3831 215.269 52.2873C214.787 52.1915 214.288 52.2407 213.835 52.4286C213.381 52.6164 212.993 52.9345 212.721 53.3427C212.448 53.7509 212.302 54.2307 212.302 54.7216C212.294 55.0499 212.352 55.3765 212.474 55.6814C212.596 55.9864 212.778 56.2635 213.01 56.4957C213.242 56.7279 213.52 56.9104 213.825 57.0321C214.13 57.1538 214.456 57.2122 214.784 57.2036Z" fill="#50EA97"/>
<path d="M18.3047 72.7912C18.3869 72.7912 18.4536 72.7246 18.4536 72.6423C18.4536 72.5601 18.3869 72.4934 18.3047 72.4934C18.2224 72.4934 18.1558 72.5601 18.1558 72.6423C18.1558 72.7246 18.2224 72.7912 18.3047 72.7912Z" fill="#50EA97"/>
<path d="M36.1599 73.386C36.3072 73.386 36.4511 73.3423 36.5736 73.2605C36.696 73.1787 36.7915 73.0624 36.8478 72.9263C36.9042 72.7903 36.9189 72.6406 36.8902 72.4961C36.8615 72.3517 36.7905 72.219 36.6864 72.1149C36.5823 72.0108 36.4496 71.9398 36.3052 71.9111C36.1607 71.8824 36.011 71.8971 35.8749 71.9535C35.7389 72.0098 35.6226 72.1053 35.5408 72.2277C35.459 72.3502 35.4153 72.4941 35.4153 72.6414C35.4153 72.8389 35.4937 73.0283 35.6334 73.1679C35.773 73.3075 35.9624 73.386 36.1599 73.386Z" fill="#50EA97"/>
<path d="M54.0348 74.0807C54.8298 74.0807 55.4743 73.4362 55.4743 72.6411C55.4743 71.8461 54.8298 71.2015 54.0348 71.2015C53.2397 71.2015 52.5952 71.8461 52.5952 72.6411C52.5952 73.4362 53.2397 74.0807 54.0348 74.0807Z" fill="#50EA97"/>
<path d="M71.8936 74.7257C72.3049 74.7208 72.7055 74.5944 73.0451 74.3624C73.3847 74.1303 73.648 73.803 73.802 73.4216C73.956 73.0403 73.9938 72.6219 73.9106 72.2191C73.8274 71.8163 73.6269 71.4472 73.3343 71.1581C73.0418 70.869 72.6703 70.6728 72.2665 70.5944C71.8628 70.5159 71.4449 70.5586 71.0653 70.7172C70.6858 70.8757 70.3617 71.1429 70.1336 71.4852C69.9056 71.8275 69.784 72.2296 69.7839 72.6408C69.7839 72.9167 69.8387 73.1899 69.945 73.4445C70.0513 73.699 70.2071 73.93 70.4033 74.1239C70.5996 74.3179 70.8323 74.4709 71.0882 74.5742C71.344 74.6775 71.6178 74.729 71.8936 74.7257Z" fill="#50EA97"/>
<path d="M89.7509 75.3217C91.2313 75.3217 92.4315 74.1216 92.4315 72.6411C92.4315 71.1607 91.2313 69.9606 89.7509 69.9606C88.2704 69.9606 87.0703 71.1607 87.0703 72.6411C87.0703 74.1216 88.2704 75.3217 89.7509 75.3217Z" fill="#50EA97"/>
<path d="M107.61 75.8188C108.239 75.8213 108.854 75.6371 109.378 75.2895C109.902 74.9419 110.311 74.4465 110.554 73.8663C110.796 73.286 110.861 72.6468 110.74 72.0297C110.619 71.4126 110.317 70.8454 109.873 70.3998C109.429 69.9543 108.863 69.6505 108.247 69.5269C107.63 69.4033 106.991 69.4655 106.409 69.7055C105.828 69.9456 105.331 70.3528 104.982 70.8755C104.632 71.3983 104.445 72.013 104.445 72.6419C104.445 73.4823 104.778 74.2885 105.371 74.884C105.965 75.4794 106.769 75.8156 107.61 75.8188Z" fill="#50EA97"/>
<path d="M125.466 76.2401C126.169 76.24 126.856 76.032 127.441 75.6423C128.026 75.2526 128.483 74.6985 128.753 74.0498C129.024 73.4012 129.097 72.687 128.962 71.9971C128.828 71.3072 128.492 70.6726 127.998 70.173C127.503 69.6735 126.872 69.3313 126.184 69.1897C125.495 69.0481 124.78 69.1134 124.129 69.3772C123.478 69.6411 122.919 70.0918 122.523 70.6726C122.127 71.2534 121.912 71.9384 121.905 72.6412C121.9 73.112 121.988 73.5792 122.165 74.0156C122.342 74.452 122.603 74.8491 122.935 75.1837C123.266 75.5184 123.66 75.7841 124.095 75.9654C124.529 76.1467 124.996 76.2401 125.466 76.2401Z" fill="#50EA97"/>
<path d="M143.337 76.4514C144.09 76.449 144.825 76.2234 145.45 75.8033C146.075 75.3832 146.561 74.7873 146.848 74.0909C147.134 73.3945 147.208 72.6289 147.06 71.8907C146.911 71.1524 146.547 70.4747 146.014 69.9432C145.481 69.4116 144.802 69.05 144.063 68.904C143.325 68.758 142.559 68.8341 141.864 69.1228C141.168 69.4116 140.574 69.8999 140.156 70.5262C139.738 71.1524 139.515 71.8885 139.515 72.6415C139.515 73.1429 139.614 73.6393 139.806 74.1024C139.998 74.5654 140.28 74.986 140.635 75.3399C140.99 75.6939 141.411 75.9742 141.875 76.165C142.339 76.3557 142.836 76.4531 143.337 76.4514Z" fill="#50EA97"/>
<path d="M161.194 76.5513C161.967 76.5513 162.723 76.322 163.365 75.8925C164.008 75.4629 164.509 74.8524 164.805 74.1381C165.101 73.4238 165.178 72.6378 165.028 71.8795C164.877 71.1212 164.505 70.4247 163.958 69.8779C163.411 69.3312 162.715 68.9589 161.956 68.8081C161.198 68.6572 160.412 68.7347 159.698 69.0305C158.983 69.3264 158.373 69.8274 157.943 70.4703C157.514 71.1132 157.284 71.869 157.284 72.6421C157.284 73.6789 157.696 74.6732 158.429 75.4063C159.163 76.1395 160.157 76.5513 161.194 76.5513Z" fill="#50EA97"/>
<path d="M179.052 76.4514C179.807 76.4563 180.546 76.237 181.176 75.8214C181.805 75.4057 182.298 74.8124 182.59 74.1167C182.882 73.421 182.961 72.6542 182.817 71.9135C182.672 71.1728 182.312 70.4917 181.78 69.9563C181.248 69.421 180.569 69.0557 179.829 68.9067C179.09 68.7577 178.322 68.8317 177.625 69.1193C176.927 69.4069 176.331 69.8952 175.911 70.5222C175.491 71.1493 175.267 71.8869 175.267 72.6415C175.267 73.6476 175.665 74.6129 176.374 75.3267C177.083 76.0405 178.046 76.4448 179.052 76.4514Z" fill="#50EA97"/>
<path d="M196.922 76.2395C197.636 76.237 198.333 76.0232 198.925 75.6249C199.518 75.2265 199.978 74.6617 200.25 74.0016C200.521 73.3415 200.591 72.6157 200.45 71.916C200.31 71.2163 199.965 70.574 199.459 70.0702C198.954 69.5664 198.31 69.2237 197.61 69.0853C196.91 68.947 196.184 69.0192 195.525 69.2929C194.866 69.5666 194.303 70.0295 193.906 70.6231C193.51 71.2167 193.299 71.9144 193.299 72.6282C193.299 73.1034 193.392 73.5741 193.575 74.013C193.757 74.452 194.024 74.8506 194.361 75.1861C194.697 75.5216 195.097 75.7874 195.537 75.9682C195.976 76.1489 196.447 76.2411 196.922 76.2395Z" fill="#50EA97"/>
<path d="M214.783 75.8682C215.421 75.8682 216.045 75.679 216.576 75.3244C217.106 74.9699 217.52 74.4659 217.764 73.8764C218.008 73.2868 218.072 72.638 217.948 72.0121C217.823 71.3862 217.516 70.8113 217.065 70.3601C216.613 69.9088 216.038 69.6015 215.412 69.477C214.787 69.3525 214.138 69.4164 213.548 69.6606C212.959 69.9048 212.455 70.3184 212.1 70.849C211.746 71.3796 211.556 72.0034 211.556 72.6416C211.556 73.0653 211.64 73.4849 211.802 73.8764C211.964 74.2678 212.202 74.6235 212.501 74.9232C212.801 75.2228 213.157 75.4604 213.548 75.6226C213.94 75.7847 214.359 75.8682 214.783 75.8682Z" fill="#50EA97"/>
<path d="M18.3052 90.9472C18.4236 90.9472 18.5373 90.9001 18.6211 90.8163C18.7048 90.7325 18.7519 90.6189 18.7519 90.5004C18.7519 90.3819 18.7048 90.2683 18.6211 90.1845C18.5373 90.1007 18.4236 90.0536 18.3052 90.0536C18.1867 90.0536 18.073 90.1007 17.9892 90.1845C17.9055 90.2683 17.8584 90.3819 17.8584 90.5004C17.8584 90.6189 17.9055 90.7325 17.9892 90.8163C18.073 90.9001 18.1867 90.9472 18.3052 90.9472Z" fill="#50EA97"/>
<path d="M36.1685 91.7405C36.4139 91.7405 36.6539 91.6678 36.858 91.5314C37.062 91.395 37.2211 91.2012 37.315 90.9745C37.409 90.7477 37.4335 90.4982 37.3857 90.2575C37.3378 90.0167 37.2196 89.7956 37.046 89.622C36.8725 89.4485 36.6513 89.3303 36.4106 89.2824C36.1699 89.2345 35.9203 89.2591 35.6936 89.353C35.4668 89.4469 35.273 89.606 35.1366 89.8101C35.0003 90.0141 34.9275 90.2541 34.9275 90.4995C34.9275 90.8287 35.0582 91.1443 35.291 91.3771C35.5237 91.6098 35.8394 91.7405 36.1685 91.7405Z" fill="#50EA97"/>
<path d="M54.0272 92.4845C54.4204 92.4869 54.8055 92.3726 55.1337 92.1559C55.4618 91.9392 55.7182 91.63 55.8704 91.2674C56.0226 90.9048 56.0637 90.5051 55.9885 90.1192C55.9133 89.7332 55.7252 89.3782 55.448 89.0993C55.1708 88.8204 54.817 88.63 54.4315 88.5524C54.046 88.4747 53.6461 88.5134 53.2826 88.6633C52.919 88.8132 52.6082 89.0677 52.3895 89.3945C52.1707 89.7213 52.054 90.1056 52.054 90.4989C52.0539 91.0233 52.2614 91.5265 52.6311 91.8986C53.0008 92.2706 53.5027 92.4812 54.0272 92.4845Z" fill="#50EA97"/>
<path d="M71.8922 93.1802C72.4224 93.1802 72.9407 93.023 73.3815 92.7285C73.8223 92.434 74.1659 92.0153 74.3688 91.5255C74.5717 91.0357 74.6247 90.4967 74.5213 89.9767C74.4179 89.4567 74.1626 88.9791 73.7877 88.6042C73.4128 88.2293 72.9352 87.974 72.4152 87.8706C71.8952 87.7672 71.3562 87.8203 70.8664 88.0231C70.3766 88.226 69.958 88.5696 69.6634 89.0104C69.3689 89.4513 69.2117 89.9695 69.2117 90.4997C69.2117 91.2106 69.4941 91.8924 69.9968 92.3951C70.4995 92.8979 71.1813 93.1802 71.8922 93.1802Z" fill="#50EA97"/>
<path d="M89.7529 93.8255C90.4107 93.8255 91.0537 93.6305 91.6007 93.265C92.1476 92.8996 92.5739 92.3801 92.8256 91.7724C93.0774 91.1647 93.1432 90.4959 93.0149 89.8508C92.8866 89.2056 92.5698 88.613 92.1047 88.1478C91.6395 87.6827 91.0469 87.3659 90.4018 87.2376C89.7566 87.1093 89.0879 87.1752 88.4801 87.4269C87.8724 87.6786 87.353 88.1049 86.9875 88.6518C86.6221 89.1988 86.427 89.8418 86.427 90.4996C86.4254 90.9368 86.5103 91.3701 86.6769 91.7743C86.8434 92.1786 87.0883 92.5459 87.3975 92.855C87.7067 93.1642 88.074 93.4091 88.4782 93.5757C88.8825 93.7422 89.3157 93.8272 89.7529 93.8255Z" fill="#50EA97"/>
<path d="M107.605 94.4213C108.381 94.4238 109.14 94.1959 109.787 93.7664C110.433 93.337 110.938 92.7254 111.237 92.0091C111.535 91.2927 111.615 90.5038 111.465 89.7423C111.315 88.9808 110.942 88.2809 110.395 87.7312C109.847 87.1815 109.148 86.8068 108.387 86.6545C107.626 86.5021 106.837 86.5791 106.119 86.8755C105.402 87.172 104.789 87.6746 104.357 88.3197C103.926 88.9649 103.696 89.7236 103.696 90.4997C103.694 91.0141 103.794 91.5238 103.99 91.9995C104.185 92.4752 104.473 92.9076 104.836 93.2719C105.199 93.6363 105.631 93.9253 106.106 94.1226C106.581 94.3198 107.09 94.4213 107.605 94.4213Z" fill="#50EA97"/>
<path d="M125.48 94.8554C127.885 94.8554 129.836 92.9051 129.836 90.4994C129.836 88.0937 127.885 86.1435 125.48 86.1435C123.074 86.1435 121.124 88.0937 121.124 90.4994C121.124 92.9051 123.074 94.8554 125.48 94.8554Z" fill="#50EA97"/>
<path d="M143.334 95.1653C144.258 95.1677 145.161 94.8961 145.93 94.3849C146.699 93.8737 147.299 93.1458 147.654 92.2934C148.009 91.441 148.104 90.5024 147.925 89.5964C147.746 88.6904 147.303 87.8579 146.651 87.204C145.999 86.5502 145.167 86.1046 144.262 85.9235C143.356 85.7425 142.417 85.8341 141.564 86.1869C140.711 86.5397 139.981 87.1378 139.468 87.9054C138.955 88.673 138.681 89.5757 138.681 90.4991C138.679 91.1113 138.798 91.7178 139.031 92.2838C139.265 92.8499 139.607 93.3644 140.039 93.7979C140.472 94.2313 140.985 94.5752 141.551 94.8098C142.116 95.0445 142.722 95.1653 143.334 95.1653Z" fill="#50EA97"/>
<path d="M161.191 95.3135C162.144 95.3159 163.076 95.0356 163.87 94.508C164.663 93.9804 165.282 93.2293 165.649 92.3496C166.015 91.47 166.112 90.5015 165.928 89.5666C165.743 88.6318 165.286 87.7726 164.613 87.098C163.94 86.4233 163.082 85.9635 162.147 85.7767C161.213 85.5899 160.244 85.6845 159.364 86.0486C158.483 86.4127 157.73 87.0298 157.201 87.822C156.671 88.6141 156.388 89.5455 156.388 90.4984C156.388 91.7733 156.894 92.9961 157.794 93.8988C158.695 94.8014 159.916 95.3102 161.191 95.3135Z" fill="#50EA97"/>
<path d="M179.048 95.2147C179.981 95.2172 180.894 94.9427 181.671 94.426C182.448 93.9093 183.055 93.1737 183.414 92.3122C183.772 91.4507 183.868 90.5021 183.687 89.5865C183.506 88.6709 183.058 87.8295 182.399 87.1687C181.74 86.508 180.9 86.0576 179.985 85.8746C179.07 85.6916 178.121 85.7843 177.259 86.1409C176.396 86.4974 175.659 87.1019 175.14 87.8776C174.621 88.6534 174.345 89.5656 174.344 90.4989C174.343 91.1176 174.463 91.7306 174.699 92.3026C174.935 92.8747 175.281 93.3946 175.718 93.8327C176.155 94.2708 176.674 94.6184 177.245 94.8555C177.817 95.0926 178.429 95.2147 179.048 95.2147Z" fill="#50EA97"/>
<path d="M196.923 94.9047C199.357 94.9047 201.329 92.9323 201.329 90.4991C201.329 88.066 199.357 86.0936 196.923 86.0936C194.49 86.0936 192.518 88.066 192.518 90.4991C192.518 92.9323 194.49 94.9047 196.923 94.9047Z" fill="#50EA97"/>
<path d="M214.778 94.4718C215.563 94.4718 216.331 94.2389 216.984 93.8026C217.637 93.3662 218.146 92.746 218.447 92.0204C218.747 91.2947 218.826 90.4962 218.673 89.7259C218.52 88.9555 218.141 88.2479 217.586 87.6926C217.031 87.1372 216.323 86.759 215.553 86.6057C214.782 86.4525 213.984 86.5311 213.258 86.8317C212.533 87.1323 211.912 87.6413 211.476 88.2943C211.04 88.9474 210.807 89.7152 210.807 90.5006C210.805 91.0226 210.907 91.5397 211.106 92.0223C211.305 92.5048 211.597 92.9432 211.966 93.3123C212.335 93.6814 212.774 93.9739 213.256 94.1729C213.739 94.3719 214.256 94.4735 214.778 94.4718Z" fill="#50EA97"/>
<path d="M0.432484 108.507C0.458931 108.507 0.48429 108.497 0.50299 108.478C0.521691 108.46 0.532195 108.434 0.532195 108.408C0.534325 108.394 0.53322 108.38 0.528962 108.367C0.524704 108.354 0.517419 108.342 0.507698 108.332C0.497977 108.323 0.486096 108.315 0.473025 108.311C0.459954 108.307 0.446065 108.306 0.432484 108.308C0.406037 108.308 0.380669 108.319 0.361969 108.337C0.343268 108.356 0.332764 108.381 0.332764 108.408C0.335472 108.433 0.346846 108.457 0.364993 108.475C0.383139 108.493 0.406964 108.505 0.432484 108.507Z" fill="#50EA97"/>
<path d="M18.3075 109.214C18.5313 109.214 18.746 109.125 18.9042 108.967C19.0625 108.809 19.1514 108.594 19.1514 108.37C19.1514 108.146 19.0625 107.932 18.9042 107.773C18.746 107.615 18.5313 107.526 18.3075 107.526C18.0837 107.526 17.8691 107.615 17.7108 107.773C17.5525 107.932 17.4636 108.146 17.4636 108.37C17.4636 108.594 17.5525 108.809 17.7108 108.967C17.8691 109.125 18.0837 109.214 18.3075 109.214Z" fill="#50EA97"/>
<path d="M36.1665 109.996C36.491 109.996 36.8082 109.9 37.0779 109.719C37.3475 109.539 37.5575 109.282 37.6811 108.982C37.8047 108.682 37.8364 108.352 37.7722 108.034C37.708 107.716 37.5507 107.424 37.3204 107.195C37.09 106.967 36.797 106.812 36.4784 106.75C36.1598 106.688 35.8301 106.722 35.531 106.848C35.2319 106.974 34.9769 107.186 34.7984 107.457C34.6199 107.728 34.5259 108.046 34.5284 108.371C34.5316 108.803 34.7057 109.216 35.0125 109.521C35.3194 109.825 35.7342 109.996 36.1665 109.996Z" fill="#50EA97"/>
<path d="M54.0267 110.789C54.5202 110.789 55.0025 110.642 55.4119 110.366C55.8213 110.091 56.1393 109.699 56.3251 109.242C56.511 108.785 56.5564 108.283 56.4555 107.8C56.3546 107.317 56.112 106.874 55.7586 106.53C55.4053 106.185 54.9573 105.954 54.4718 105.865C53.9863 105.777 53.4854 105.835 53.0331 106.032C52.5808 106.23 52.1976 106.557 51.9325 106.974C51.6674 107.39 51.5324 107.876 51.5447 108.369C51.5609 109.017 51.8295 109.632 52.2933 110.084C52.757 110.536 53.3791 110.789 54.0267 110.789Z" fill="#50EA97"/>
<path d="M71.8918 111.535C72.5207 111.535 73.1354 111.348 73.6582 110.998C74.1809 110.649 74.5881 110.152 74.8281 109.571C75.0682 108.989 75.1304 108.35 75.0068 107.733C74.8832 107.117 74.5794 106.551 74.1339 106.107C73.6883 105.663 73.1211 105.362 72.504 105.24C71.8869 105.119 71.2477 105.184 70.6674 105.426C70.0871 105.669 69.5918 106.078 69.2442 106.602C68.8966 107.126 68.7124 107.741 68.7149 108.37C68.7149 108.787 68.7971 109.199 68.9569 109.584C69.1167 109.969 69.351 110.318 69.6461 110.612C69.9413 110.906 70.2916 111.139 70.677 111.297C71.0624 111.456 71.4752 111.536 71.8918 111.535Z" fill="#50EA97"/>
<path d="M89.7507 112.229C90.5274 112.231 91.2873 112.003 91.9341 111.573C92.5809 111.143 93.0855 110.531 93.3838 109.814C93.6822 109.097 93.7609 108.307 93.61 107.545C93.459 106.783 93.0853 106.083 92.5361 105.534C91.9869 104.985 91.287 104.611 90.5251 104.46C89.7633 104.31 88.9738 104.388 88.2567 104.687C87.5396 104.985 86.9273 105.489 86.4973 106.136C86.0673 106.783 85.8391 107.543 85.8416 108.32C85.8416 109.356 86.2534 110.351 86.9865 111.084C87.7196 111.817 88.714 112.229 89.7507 112.229Z" fill="#50EA97"/>
<path d="M107.607 112.924C108.511 112.926 109.396 112.66 110.149 112.159C110.902 111.659 111.489 110.945 111.836 110.11C112.183 109.275 112.275 108.356 112.099 107.469C111.923 106.582 111.488 105.767 110.849 105.128C110.209 104.488 109.394 104.053 108.507 103.877C107.62 103.701 106.701 103.793 105.866 104.14C105.031 104.487 104.318 105.075 103.817 105.828C103.316 106.58 103.05 107.465 103.053 108.369C103.053 108.968 103.17 109.56 103.399 110.112C103.628 110.665 103.964 111.167 104.386 111.59C104.809 112.013 105.311 112.348 105.864 112.577C106.417 112.806 107.009 112.924 107.607 112.924Z" fill="#50EA97"/>
<path d="M125.466 113.47C126.475 113.47 127.461 113.171 128.299 112.61C129.138 112.05 129.792 111.253 130.178 110.321C130.564 109.389 130.665 108.364 130.468 107.374C130.271 106.385 129.786 105.476 129.072 104.763C128.359 104.05 127.45 103.564 126.461 103.367C125.471 103.17 124.446 103.271 123.514 103.657C122.582 104.043 121.785 104.697 121.225 105.536C120.664 106.375 120.365 107.361 120.365 108.37C120.365 109.722 120.903 111.02 121.859 111.976C122.816 112.933 124.113 113.47 125.466 113.47Z" fill="#50EA97"/>
<path d="M143.336 113.868C144.423 113.868 145.486 113.546 146.39 112.942C147.294 112.338 147.999 111.479 148.415 110.475C148.831 109.47 148.94 108.365 148.728 107.298C148.515 106.232 147.992 105.252 147.223 104.483C146.454 103.714 145.475 103.191 144.408 102.979C143.342 102.767 142.236 102.875 141.232 103.292C140.227 103.708 139.369 104.412 138.764 105.316C138.16 106.22 137.838 107.283 137.838 108.371C137.841 109.828 138.421 111.224 139.452 112.254C140.482 113.285 141.878 113.865 143.336 113.868Z" fill="#50EA97"/>
<path d="M161.192 114.017C162.309 114.017 163.401 113.685 164.329 113.065C165.258 112.444 165.982 111.563 166.409 110.531C166.836 109.499 166.948 108.364 166.73 107.268C166.512 106.173 165.975 105.167 165.185 104.377C164.395 103.588 163.389 103.05 162.294 102.832C161.199 102.614 160.063 102.726 159.031 103.153C158 103.581 157.118 104.304 156.497 105.233C155.877 106.161 155.546 107.253 155.546 108.37C155.546 109.868 156.141 111.304 157.199 112.363C158.258 113.422 159.695 114.017 161.192 114.017Z" fill="#50EA97"/>
<path d="M179.049 113.917C180.146 113.917 181.219 113.591 182.131 112.982C183.043 112.372 183.754 111.506 184.174 110.492C184.594 109.479 184.704 108.363 184.49 107.287C184.276 106.211 183.747 105.223 182.972 104.447C182.196 103.671 181.207 103.143 180.131 102.929C179.055 102.715 177.94 102.824 176.926 103.244C175.913 103.664 175.046 104.375 174.437 105.287C173.827 106.2 173.502 107.272 173.502 108.369C173.502 109.098 173.645 109.819 173.924 110.492C174.203 111.165 174.611 111.777 175.126 112.292C175.642 112.807 176.253 113.216 176.926 113.494C177.599 113.773 178.321 113.917 179.049 113.917Z" fill="#50EA97"/>
<path d="M196.922 113.47C197.94 113.467 198.934 113.163 199.78 112.596C200.625 112.028 201.283 111.223 201.671 110.282C202.059 109.34 202.159 108.305 201.959 107.307C201.759 106.309 201.268 105.392 200.547 104.673C199.826 103.954 198.908 103.465 197.91 103.267C196.911 103.07 195.876 103.172 194.936 103.562C193.995 103.953 193.192 104.613 192.626 105.459C192.061 106.306 191.759 107.301 191.759 108.319C191.759 108.997 191.893 109.667 192.153 110.293C192.412 110.919 192.793 111.487 193.272 111.965C193.752 112.444 194.321 112.823 194.947 113.081C195.573 113.339 196.244 113.471 196.922 113.47Z" fill="#50EA97"/>
<path d="M214.781 112.974C215.691 112.974 216.582 112.704 217.339 112.198C218.096 111.692 218.686 110.973 219.035 110.132C219.383 109.291 219.474 108.365 219.297 107.472C219.119 106.579 218.68 105.758 218.036 105.114C217.393 104.47 216.572 104.032 215.679 103.854C214.786 103.677 213.86 103.768 213.019 104.116C212.178 104.465 211.459 105.055 210.953 105.812C210.447 106.569 210.177 107.459 210.177 108.37C210.177 109.591 210.662 110.762 211.525 111.626C212.389 112.489 213.56 112.974 214.781 112.974Z" fill="#50EA97"/>
<path d="M0.429326 126.475C0.49495 126.475 0.557882 126.449 0.604285 126.403C0.650688 126.356 0.676757 126.293 0.676757 126.228C0.676757 126.162 0.650688 126.099 0.604285 126.053C0.557882 126.006 0.49495 125.98 0.429326 125.98C0.363702 125.98 0.30076 126.006 0.254357 126.053C0.207954 126.099 0.181885 126.162 0.181885 126.228C0.181885 126.293 0.207954 126.356 0.254357 126.403C0.30076 126.449 0.363702 126.475 0.429326 126.475Z" fill="#50EA97"/>
<path d="M18.3074 127.321C18.5971 127.321 18.8748 127.205 19.0796 127.001C19.2844 126.796 19.3995 126.518 19.3995 126.228C19.3995 125.939 19.2844 125.661 19.0796 125.456C18.8748 125.251 18.5971 125.136 18.3074 125.136C18.0178 125.136 17.74 125.251 17.5352 125.456C17.3304 125.661 17.2153 125.939 17.2153 126.228C17.2153 126.518 17.3304 126.796 17.5352 127.001C17.74 127.205 18.0178 127.321 18.3074 127.321Z" fill="#50EA97"/>
<path d="M36.1581 128.163C36.541 128.163 36.9153 128.05 37.2337 127.837C37.5521 127.624 37.8002 127.322 37.9467 126.968C38.0933 126.614 38.1316 126.225 38.0569 125.85C37.9822 125.474 37.7978 125.129 37.5271 124.858C37.2563 124.588 36.9114 124.403 36.5358 124.329C36.1603 124.254 35.771 124.292 35.4173 124.439C35.0635 124.585 34.7612 124.833 34.5484 125.152C34.3357 125.47 34.2222 125.844 34.2222 126.227C34.2222 126.741 34.4261 127.233 34.7892 127.596C35.1523 127.959 35.6447 128.163 36.1581 128.163Z" fill="#50EA97"/>
<path d="M54.0231 128.996C54.5739 128.998 55.1131 128.837 55.5721 128.533C56.0312 128.228 56.3894 127.794 56.6013 127.286C56.8133 126.777 56.8694 126.217 56.7625 125.677C56.6556 125.136 56.3906 124.64 56.0011 124.25C55.6116 123.861 55.1151 123.596 54.5747 123.489C54.0344 123.382 53.4744 123.438 52.9659 123.65C52.4575 123.862 52.0235 124.22 51.719 124.679C51.4144 125.138 51.2532 125.678 51.2556 126.229C51.2556 126.962 51.5472 127.666 52.0662 128.185C52.5852 128.704 53.2891 128.996 54.0231 128.996Z" fill="#50EA97"/>
<path d="M71.8942 129.79C72.5981 129.788 73.2855 129.577 73.8695 129.184C74.4536 128.791 74.9082 128.234 75.1759 127.583C75.4435 126.932 75.5123 126.216 75.3735 125.526C75.2347 124.836 74.8945 124.202 74.3959 123.706C73.8973 123.209 73.2626 122.871 72.572 122.734C71.8815 122.598 71.166 122.669 70.5159 122.939C69.8658 123.209 69.3103 123.665 68.9195 124.251C68.5286 124.836 68.3201 125.524 68.3201 126.228C68.3201 126.697 68.4126 127.161 68.5924 127.594C68.7721 128.027 69.0356 128.42 69.3676 128.751C69.6997 129.082 70.0938 129.344 70.5274 129.522C70.9609 129.701 71.4254 129.792 71.8942 129.79Z" fill="#50EA97"/>
<path d="M89.7451 130.585C92.1508 130.585 94.101 128.634 94.101 126.229C94.101 123.823 92.1508 121.873 89.7451 121.873C87.3394 121.873 85.3892 123.823 85.3892 126.229C85.3892 128.634 87.3394 130.585 89.7451 130.585Z" fill="#50EA97"/>
<path d="M107.607 131.329C108.616 131.329 109.602 131.029 110.441 130.469C111.28 129.909 111.934 129.112 112.32 128.18C112.706 127.248 112.807 126.222 112.61 125.233C112.413 124.244 111.927 123.335 111.214 122.621C110.501 121.908 109.592 121.422 108.602 121.226C107.613 121.029 106.587 121.13 105.655 121.516C104.723 121.902 103.927 122.556 103.366 123.394C102.806 124.233 102.507 125.219 102.507 126.228C102.507 127.581 103.044 128.878 104.001 129.835C104.957 130.791 106.255 131.329 107.607 131.329Z" fill="#50EA97"/>
<path d="M125.478 132.024C128.678 132.024 131.273 129.43 131.273 126.229C131.273 123.028 128.678 120.433 125.478 120.433C122.277 120.433 119.682 123.028 119.682 126.229C119.682 129.43 122.277 132.024 125.478 132.024Z" fill="#50EA97"/>
<path d="M143.34 132.52C144.585 132.52 145.801 132.151 146.836 131.46C147.871 130.769 148.677 129.786 149.153 128.636C149.629 127.487 149.754 126.221 149.511 125.001C149.268 123.78 148.669 122.659 147.789 121.779C146.909 120.899 145.788 120.3 144.568 120.057C143.347 119.815 142.082 119.939 140.932 120.415C139.783 120.892 138.8 121.698 138.109 122.733C137.417 123.767 137.048 124.984 137.048 126.228C137.048 127.897 137.711 129.497 138.891 130.677C140.071 131.857 141.672 132.52 143.34 132.52Z" fill="#50EA97"/>
<path d="M161.194 132.767C162.488 132.767 163.752 132.384 164.828 131.665C165.903 130.946 166.741 129.925 167.236 128.73C167.731 127.535 167.861 126.22 167.609 124.951C167.356 123.682 166.733 122.517 165.819 121.603C164.904 120.688 163.739 120.065 162.47 119.813C161.201 119.56 159.886 119.69 158.691 120.185C157.496 120.68 156.475 121.518 155.756 122.594C155.038 123.669 154.654 124.934 154.654 126.227C154.654 127.962 155.343 129.625 156.57 130.852C157.796 132.078 159.46 132.767 161.194 132.767Z" fill="#50EA97"/>
<path d="M179.054 132.57C180.308 132.57 181.534 132.198 182.577 131.501C183.62 130.804 184.433 129.814 184.913 128.655C185.392 127.496 185.518 126.221 185.273 124.991C185.029 123.761 184.425 122.631 183.538 121.744C182.651 120.857 181.521 120.253 180.291 120.008C179.061 119.764 177.786 119.889 176.627 120.369C175.468 120.849 174.478 121.662 173.781 122.705C173.084 123.748 172.712 124.974 172.712 126.228C172.712 127.91 173.38 129.523 174.57 130.712C175.759 131.902 177.372 132.57 179.054 132.57Z" fill="#50EA97"/>
<path d="M196.921 132.086C198.077 132.086 199.207 131.743 200.169 131.101C201.13 130.458 201.879 129.546 202.322 128.478C202.764 127.409 202.88 126.234 202.654 125.1C202.429 123.967 201.872 122.925 201.054 122.108C200.237 121.29 199.195 120.733 198.062 120.508C196.928 120.282 195.753 120.398 194.684 120.841C193.616 121.283 192.704 122.032 192.061 122.993C191.419 123.955 191.076 125.085 191.076 126.241C191.075 127.009 191.225 127.77 191.518 128.479C191.811 129.189 192.241 129.834 192.785 130.377C193.328 130.921 193.973 131.351 194.683 131.644C195.392 131.937 196.153 132.087 196.921 132.086Z" fill="#50EA97"/>
<path d="M214.782 131.428C215.811 131.428 216.816 131.123 217.671 130.552C218.526 129.981 219.193 129.169 219.586 128.219C219.98 127.268 220.083 126.223 219.882 125.214C219.682 124.206 219.186 123.279 218.459 122.552C217.732 121.825 216.805 121.329 215.797 121.129C214.788 120.928 213.743 121.031 212.792 121.425C211.842 121.818 211.03 122.485 210.459 123.34C209.887 124.195 209.583 125.2 209.583 126.229C209.586 127.607 210.135 128.927 211.109 129.902C212.084 130.876 213.404 131.425 214.782 131.428Z" fill="#50EA97"/>
<path d="M0.435356 144.497C0.540679 144.497 0.641686 144.455 0.716161 144.38C0.790636 144.306 0.832477 144.205 0.832477 144.099C0.842703 144.042 0.840264 143.984 0.825338 143.928C0.810412 143.871 0.783363 143.819 0.74609 143.775C0.708817 143.73 0.662223 143.694 0.609607 143.67C0.556991 143.645 0.499629 143.632 0.441557 143.632C0.383485 143.632 0.326124 143.645 0.273508 143.67C0.220892 143.694 0.174298 143.73 0.137025 143.775C0.0997519 143.819 0.0727027 143.871 0.0577767 143.928C0.0428507 143.984 0.0404121 144.042 0.0506377 144.099C0.0489738 144.151 0.0576997 144.202 0.0762869 144.251C0.0948741 144.299 0.122949 144.343 0.158839 144.38C0.19473 144.417 0.237707 144.446 0.28521 144.466C0.332713 144.486 0.383773 144.497 0.435356 144.497Z" fill="#50EA97"/>
<path d="M18.3055 145.327C18.5509 145.327 18.7908 145.254 18.9949 145.118C19.199 144.982 19.3581 144.788 19.452 144.561C19.5459 144.334 19.5705 144.085 19.5226 143.844C19.4747 143.603 19.3565 143.382 19.183 143.209C19.0094 143.035 18.7883 142.917 18.5476 142.869C18.3068 142.821 18.0573 142.846 17.8305 142.94C17.6038 143.033 17.41 143.193 17.2736 143.397C17.1372 143.601 17.0645 143.841 17.0645 144.086C17.0645 144.415 17.1952 144.731 17.4279 144.964C17.6607 145.196 17.9763 145.327 18.3055 145.327Z" fill="#50EA97"/>
<path d="M36.166 146.22C36.5882 146.22 37.0009 146.095 37.3519 145.861C37.7029 145.626 37.9765 145.293 38.1381 144.903C38.2996 144.513 38.3419 144.083 38.2595 143.669C38.1772 143.255 37.9739 142.875 37.6754 142.576C37.3768 142.278 36.9965 142.075 36.5824 141.992C36.1684 141.91 35.7392 141.952 35.3492 142.114C34.9591 142.275 34.6258 142.549 34.3912 142.9C34.1567 143.251 34.0315 143.664 34.0315 144.086C34.0315 144.652 34.2564 145.195 34.6567 145.595C35.057 145.995 35.5999 146.22 36.166 146.22Z" fill="#50EA97"/>
<path d="M54.0353 147.052C55.6734 147.052 57.0013 145.724 57.0013 144.086C57.0013 142.448 55.6734 141.12 54.0353 141.12C52.3973 141.12 51.0693 142.448 51.0693 144.086C51.0693 145.724 52.3973 147.052 54.0353 147.052Z" fill="#50EA97"/>
<path d="M71.8941 147.908C72.65 147.908 73.389 147.684 74.0176 147.264C74.6462 146.844 75.1361 146.247 75.4254 145.549C75.7147 144.85 75.7904 144.082 75.6429 143.34C75.4954 142.599 75.1314 141.918 74.5968 141.383C74.0623 140.848 73.3812 140.484 72.6398 140.337C71.8983 140.189 71.1298 140.265 70.4313 140.554C69.7329 140.844 69.1359 141.334 68.716 141.962C68.296 142.591 68.0718 143.33 68.0718 144.086C68.0718 145.1 68.4745 146.072 69.1913 146.789C69.9081 147.505 70.8803 147.908 71.8941 147.908Z" fill="#50EA97"/>
<path d="M89.7456 148.739C90.666 148.739 91.5658 148.466 92.3311 147.955C93.0964 147.444 93.6929 146.717 94.0451 145.866C94.3973 145.016 94.4895 144.08 94.3099 143.178C94.1304 142.275 93.6871 141.446 93.0363 140.795C92.3854 140.144 91.5562 139.701 90.6535 139.521C89.7507 139.342 88.815 139.434 87.9647 139.786C87.1143 140.138 86.3875 140.735 85.8761 141.5C85.3647 142.265 85.0918 143.165 85.0918 144.086C85.0918 145.32 85.5821 146.503 86.4549 147.376C87.3276 148.249 88.5113 148.739 89.7456 148.739Z" fill="#50EA97"/>
<path d="M107.61 149.584C108.697 149.584 109.76 149.262 110.664 148.658C111.568 148.054 112.273 147.195 112.689 146.191C113.105 145.186 113.214 144.081 113.002 143.014C112.79 141.948 112.266 140.968 111.497 140.199C110.728 139.43 109.749 138.907 108.682 138.695C107.616 138.483 106.51 138.591 105.506 139.007C104.501 139.424 103.643 140.128 103.039 141.032C102.434 141.936 102.112 142.999 102.112 144.087C102.112 145.545 102.691 146.943 103.722 147.974C104.753 149.005 106.152 149.584 107.61 149.584Z" fill="#50EA97"/>
<path d="M125.469 150.378C126.714 150.38 127.932 150.013 128.968 149.323C130.004 148.633 130.813 147.652 131.291 146.502C131.769 145.353 131.895 144.087 131.654 142.866C131.413 141.645 130.814 140.522 129.935 139.641C129.056 138.76 127.934 138.159 126.714 137.916C125.493 137.672 124.227 137.796 123.077 138.272C121.926 138.748 120.943 139.554 120.251 140.589C119.559 141.624 119.19 142.841 119.19 144.086C119.19 145.752 119.851 147.351 121.028 148.53C122.205 149.71 123.803 150.374 125.469 150.378Z" fill="#50EA97"/>
<path d="M143.335 151.123C144.727 151.123 146.087 150.71 147.244 149.937C148.402 149.164 149.303 148.065 149.836 146.779C150.369 145.493 150.508 144.078 150.236 142.713C149.965 141.349 149.295 140.095 148.311 139.111C147.327 138.127 146.073 137.456 144.708 137.185C143.343 136.913 141.928 137.053 140.642 137.585C139.357 138.118 138.258 139.02 137.484 140.177C136.711 141.334 136.299 142.695 136.299 144.086C136.297 145.011 136.478 145.926 136.831 146.781C137.184 147.635 137.702 148.412 138.356 149.065C139.01 149.719 139.786 150.237 140.64 150.59C141.495 150.943 142.411 151.124 143.335 151.123Z" fill="#50EA97"/>
<path d="M161.195 151.47C162.656 151.47 164.083 151.036 165.298 150.225C166.512 149.414 167.458 148.26 168.017 146.911C168.576 145.562 168.722 144.077 168.437 142.645C168.152 141.213 167.449 139.897 166.417 138.864C165.384 137.832 164.068 137.128 162.636 136.843C161.203 136.559 159.719 136.705 158.37 137.264C157.02 137.822 155.867 138.769 155.056 139.983C154.244 141.197 153.811 142.625 153.811 144.086C153.827 146.039 154.611 147.908 155.992 149.289C157.373 150.67 159.242 151.453 161.195 151.47Z" fill="#50EA97"/>
<path d="M179.052 151.123C180.444 151.123 181.804 150.71 182.961 149.937C184.119 149.164 185.02 148.065 185.553 146.779C186.086 145.493 186.225 144.078 185.953 142.713C185.682 141.349 185.012 140.095 184.028 139.111C183.044 138.127 181.79 137.456 180.425 137.185C179.06 136.913 177.645 137.053 176.359 137.585C175.074 138.118 173.975 139.02 173.201 140.177C172.428 141.334 172.016 142.695 172.016 144.086C172.016 145.952 172.757 147.742 174.077 149.062C175.396 150.381 177.186 151.123 179.052 151.123Z" fill="#50EA97"/>
<path d="M196.926 150.478C198.19 150.478 199.426 150.103 200.477 149.4C201.528 148.698 202.347 147.7 202.831 146.532C203.315 145.364 203.441 144.079 203.195 142.84C202.948 141.6 202.339 140.461 201.446 139.567C200.552 138.673 199.413 138.065 198.173 137.818C196.933 137.571 195.648 137.698 194.481 138.182C193.313 138.665 192.315 139.485 191.612 140.536C190.91 141.587 190.535 142.822 190.535 144.086C190.534 144.926 190.698 145.758 191.018 146.534C191.339 147.31 191.81 148.015 192.403 148.609C192.997 149.203 193.702 149.674 194.479 149.994C195.255 150.315 196.087 150.479 196.926 150.478Z" fill="#50EA97"/>
<path d="M214.78 149.684C215.887 149.684 216.969 149.356 217.89 148.741C218.81 148.126 219.527 147.252 219.951 146.229C220.375 145.206 220.485 144.081 220.269 142.995C220.053 141.91 219.52 140.912 218.738 140.13C217.955 139.347 216.958 138.814 215.872 138.598C214.786 138.382 213.661 138.493 212.638 138.916C211.615 139.34 210.741 140.057 210.126 140.978C209.511 141.898 209.183 142.98 209.183 144.087C209.183 145.572 209.773 146.995 210.822 148.045C211.872 149.094 213.296 149.684 214.78 149.684Z" fill="#50EA97"/>
<path d="M0.434573 162.392C0.498619 162.402 0.564242 162.399 0.62688 162.382C0.689518 162.365 0.747665 162.334 0.797258 162.292C0.846852 162.25 0.886703 162.198 0.914038 162.139C0.941374 162.08 0.955537 162.016 0.955537 161.951C0.955537 161.886 0.941374 161.822 0.914038 161.763C0.886703 161.704 0.846852 161.652 0.797258 161.61C0.747665 161.568 0.689518 161.537 0.62688 161.52C0.564242 161.503 0.498619 161.5 0.434573 161.51C0.330416 161.528 0.235842 161.582 0.167638 161.663C0.0994343 161.743 0.0620117 161.845 0.0620117 161.951C0.0620117 162.057 0.0994343 162.159 0.167638 162.24C0.235842 162.32 0.330416 162.374 0.434573 162.392Z" fill="#50EA97"/>
<path d="M18.3109 163.235C19.0237 163.235 19.6016 162.657 19.6016 161.944C19.6016 161.232 19.0237 160.654 18.3109 160.654C17.5981 160.654 17.0203 161.232 17.0203 161.944C17.0203 162.657 17.5981 163.235 18.3109 163.235Z" fill="#50EA97"/>
<path d="M36.1624 164.128C36.5944 164.128 37.0167 164 37.3759 163.76C37.7351 163.52 38.015 163.179 38.1803 162.78C38.3457 162.381 38.3889 161.942 38.3046 161.518C38.2204 161.094 38.0123 160.705 37.7069 160.4C37.4014 160.094 37.0122 159.886 36.5885 159.802C36.1649 159.718 35.7257 159.761 35.3266 159.926C34.9275 160.091 34.5864 160.371 34.3464 160.731C34.1064 161.09 33.9783 161.512 33.9783 161.944C33.9783 162.523 34.2084 163.079 34.618 163.488C35.0276 163.898 35.5832 164.128 36.1624 164.128Z" fill="#50EA97"/>
<path d="M54.0282 165.01C55.7211 165.01 57.0935 163.638 57.0935 161.945C57.0935 160.252 55.7211 158.879 54.0282 158.879C52.3353 158.879 50.9629 160.252 50.9629 161.945C50.9629 163.638 52.3353 165.01 54.0282 165.01Z" fill="#50EA97"/>
<path d="M71.8913 165.865C72.6669 165.865 73.4251 165.635 74.07 165.204C74.7149 164.774 75.2176 164.161 75.5144 163.445C75.8112 162.728 75.8889 161.939 75.7375 161.179C75.5862 160.418 75.2127 159.719 74.6643 159.171C74.1159 158.622 73.4171 158.249 72.6564 158.098C71.8957 157.946 71.1072 158.024 70.3906 158.321C69.674 158.618 69.0616 159.12 68.6306 159.765C68.1997 160.41 67.9697 161.168 67.9697 161.944C67.9681 162.459 68.0684 162.97 68.2649 163.446C68.4614 163.923 68.7502 164.356 69.1147 164.72C69.4792 165.085 69.9121 165.374 70.3887 165.57C70.8652 165.767 71.3759 165.867 71.8913 165.865Z" fill="#50EA97"/>
<path d="M89.7436 166.76C90.6965 166.762 91.6286 166.482 92.4221 165.954C93.2156 165.427 93.8347 164.676 94.201 163.796C94.5674 162.916 94.6645 161.948 94.4801 161.013C94.2957 160.078 93.8381 159.219 93.1652 158.544C92.4923 157.87 91.6344 157.41 90.7 157.223C89.7656 157.036 88.7968 157.131 87.9162 157.495C87.0357 157.859 86.2829 158.476 85.7533 159.268C85.2236 160.06 84.9409 160.992 84.9409 161.945C84.9409 163.219 85.4465 164.442 86.3468 165.345C87.2472 166.248 88.4687 166.756 89.7436 166.76Z" fill="#50EA97"/>
<path d="M107.621 167.59C110.739 167.59 113.268 165.062 113.268 161.943C113.268 158.825 110.739 156.297 107.621 156.297C104.502 156.297 101.974 158.825 101.974 161.943C101.974 165.062 104.502 167.59 107.621 167.59Z" fill="#50EA97"/>
<path d="M125.465 168.484C126.759 168.487 128.024 168.105 129.102 167.388C130.179 166.671 131.019 165.65 131.516 164.455C132.013 163.261 132.144 161.945 131.893 160.676C131.642 159.406 131.02 158.24 130.106 157.324C129.192 156.408 128.027 155.784 126.758 155.531C125.489 155.277 124.173 155.406 122.977 155.901C121.781 156.395 120.759 157.234 120.04 158.309C119.321 159.385 118.937 160.65 118.937 161.944C118.937 163.676 119.624 165.338 120.848 166.564C122.072 167.79 123.732 168.481 125.465 168.484Z" fill="#50EA97"/>
<path d="M143.341 169.329C147.419 169.329 150.725 166.023 150.725 161.945C150.725 157.867 147.419 154.561 143.341 154.561C139.263 154.561 135.957 157.867 135.957 161.945C135.957 166.023 139.263 169.329 143.341 169.329Z" fill="#50EA97"/>
<path d="M161.192 169.924C162.77 169.924 164.313 169.456 165.625 168.579C166.938 167.702 167.96 166.456 168.564 164.998C169.168 163.54 169.326 161.935 169.018 160.387C168.711 158.84 167.951 157.418 166.835 156.302C165.719 155.186 164.297 154.426 162.749 154.118C161.201 153.81 159.596 153.968 158.138 154.572C156.68 155.176 155.434 156.199 154.557 157.511C153.68 158.823 153.212 160.366 153.212 161.944C153.212 164.061 154.053 166.09 155.55 167.587C157.046 169.083 159.076 169.924 161.192 169.924Z" fill="#50EA97"/>
<path d="M179.054 169.378C180.526 169.378 181.966 168.941 183.19 168.123C184.415 167.305 185.369 166.142 185.933 164.781C186.497 163.421 186.644 161.924 186.357 160.479C186.069 159.035 185.36 157.708 184.319 156.667C183.277 155.625 181.951 154.916 180.506 154.629C179.062 154.342 177.565 154.489 176.204 155.053C174.844 155.616 173.681 156.571 172.863 157.795C172.044 159.02 171.608 160.459 171.608 161.932C171.608 163.907 172.392 165.801 173.789 167.197C175.185 168.593 177.079 169.378 179.054 169.378Z" fill="#50EA97"/>
<path d="M196.925 168.535C198.229 168.535 199.503 168.148 200.586 167.424C201.67 166.7 202.515 165.671 203.013 164.467C203.512 163.263 203.643 161.938 203.388 160.659C203.134 159.381 202.506 158.207 201.585 157.285C200.663 156.364 199.489 155.736 198.211 155.482C196.933 155.228 195.608 155.358 194.403 155.857C193.199 156.356 192.17 157.2 191.446 158.284C190.722 159.368 190.335 160.642 190.335 161.945C190.334 162.811 190.503 163.668 190.834 164.469C191.164 165.269 191.65 165.996 192.262 166.608C192.874 167.22 193.601 167.706 194.401 168.036C195.202 168.367 196.059 168.536 196.925 168.535Z" fill="#50EA97"/>
<path d="M214.783 167.69C217.956 167.69 220.529 165.117 220.529 161.944C220.529 158.771 217.956 156.198 214.783 156.198C211.609 156.198 209.037 158.771 209.037 161.944C209.037 165.117 211.609 167.69 214.783 167.69Z" fill="#50EA97"/>
<path d="M0.435356 180.211C0.487507 180.211 0.539148 180.201 0.587329 180.181C0.63551 180.161 0.679285 180.132 0.716161 180.095C0.753037 180.058 0.782288 180.014 0.802245 179.966C0.822203 179.918 0.832477 179.866 0.832477 179.814C0.842703 179.757 0.840264 179.698 0.825338 179.642C0.810412 179.586 0.783363 179.534 0.74609 179.489C0.708817 179.445 0.662223 179.409 0.609607 179.385C0.556991 179.36 0.499629 179.347 0.441557 179.347C0.383485 179.347 0.326124 179.36 0.273508 179.385C0.220892 179.409 0.174298 179.445 0.137025 179.489C0.0997519 179.534 0.0727027 179.586 0.0577767 179.642C0.0428507 179.698 0.0404121 179.757 0.0506377 179.814C0.0505873 179.918 0.0907204 180.017 0.162532 180.091C0.234344 180.165 0.332198 180.208 0.435356 180.211Z" fill="#50EA97"/>
<path d="M18.3055 181.056C18.9908 181.056 19.5465 180.501 19.5465 179.815C19.5465 179.13 18.9908 178.574 18.3055 178.574C17.6201 178.574 17.0645 179.13 17.0645 179.815C17.0645 180.501 17.6201 181.056 18.3055 181.056Z" fill="#50EA97"/>
<path d="M36.1661 181.936C36.5888 181.936 37.0019 181.811 37.3532 181.576C37.7045 181.341 37.9781 181.006 38.1393 180.616C38.3005 180.225 38.342 179.795 38.2586 179.381C38.1752 178.966 37.9707 178.586 37.671 178.288C37.3712 177.99 36.9897 177.788 36.5748 177.707C36.1599 177.626 35.7304 177.67 35.3406 177.833C34.9508 177.997 34.6183 178.272 34.3852 178.625C34.1522 178.978 34.0291 179.392 34.0315 179.814C34.0315 180.094 34.0868 180.371 34.1942 180.629C34.3017 180.887 34.4591 181.122 34.6575 181.319C34.8558 181.516 35.0912 181.672 35.3501 181.778C35.609 181.884 35.8863 181.938 36.1661 181.936Z" fill="#50EA97"/>
<path d="M54.0353 182.781C55.6734 182.781 57.0013 181.453 57.0013 179.815C57.0013 178.177 55.6734 176.849 54.0353 176.849C52.3973 176.849 51.0693 178.177 51.0693 179.815C51.0693 181.453 52.3973 182.781 54.0353 182.781Z" fill="#50EA97"/>
<path d="M71.8941 183.626C72.6506 183.626 73.3901 183.402 74.0189 182.981C74.6478 182.561 75.1377 181.963 75.4266 181.264C75.7155 180.565 75.7905 179.795 75.642 179.054C75.4935 178.312 75.1282 177.631 74.5924 177.097C74.0566 176.563 73.3744 176.2 72.6321 176.054C71.8899 175.907 71.121 175.985 70.4227 176.276C69.7245 176.567 69.1284 177.059 68.7099 177.689C68.2914 178.32 68.0693 179.06 68.0718 179.816C68.0751 180.828 68.4792 181.797 69.1957 182.511C69.9122 183.225 70.8825 183.626 71.8941 183.626Z" fill="#50EA97"/>
<path d="M89.7508 184.519C90.681 184.519 91.5904 184.243 92.3639 183.726C93.1373 183.21 93.7402 182.475 94.0962 181.616C94.4521 180.756 94.5453 179.81 94.3638 178.898C94.1823 177.986 93.7344 177.148 93.0766 176.49C92.4188 175.832 91.5807 175.384 90.6684 175.203C89.756 175.021 88.8103 175.114 87.9509 175.47C87.0914 175.826 86.3569 176.429 85.84 177.203C85.3232 177.976 85.0474 178.885 85.0474 179.816C85.0474 181.063 85.5429 182.259 86.425 183.141C87.307 184.024 88.5033 184.519 89.7508 184.519Z" fill="#50EA97"/>
<path d="M107.624 185.362C110.687 185.362 113.171 182.878 113.171 179.814C113.171 176.751 110.687 174.267 107.624 174.267C104.56 174.267 102.076 176.751 102.076 179.814C102.076 182.878 104.56 185.362 107.624 185.362Z" fill="#50EA97"/>
<path d="M125.47 186.156C126.725 186.159 127.952 185.789 128.997 185.094C130.041 184.398 130.856 183.409 131.338 182.25C131.82 181.092 131.947 179.816 131.704 178.585C131.461 177.354 130.858 176.223 129.971 175.335C129.085 174.447 127.955 173.842 126.724 173.596C125.494 173.35 124.218 173.475 123.059 173.955C121.899 174.434 120.908 175.247 120.211 176.29C119.513 177.333 119.141 178.56 119.141 179.815C119.141 181.494 119.808 183.106 120.994 184.294C122.181 185.483 123.79 186.153 125.47 186.156Z" fill="#50EA97"/>
<path d="M143.335 186.852C144.727 186.852 146.087 186.439 147.244 185.666C148.402 184.893 149.303 183.794 149.836 182.508C150.369 181.223 150.508 179.808 150.236 178.443C149.965 177.078 149.295 175.824 148.311 174.84C147.327 173.856 146.073 173.186 144.708 172.914C143.343 172.643 141.928 172.782 140.642 173.315C139.357 173.847 138.258 174.749 137.484 175.906C136.711 177.063 136.299 178.424 136.299 179.816C136.297 180.74 136.478 181.656 136.831 182.51C137.184 183.365 137.702 184.141 138.356 184.795C139.01 185.448 139.786 185.967 140.64 186.32C141.495 186.673 142.411 186.854 143.335 186.852Z" fill="#50EA97"/>
<path d="M161.195 187.236C162.668 187.236 164.107 186.8 165.332 185.981C166.556 185.163 167.511 184 168.074 182.64C168.638 181.279 168.785 179.782 168.498 178.338C168.211 176.893 167.502 175.567 166.46 174.525C165.419 173.484 164.092 172.775 162.648 172.487C161.203 172.2 159.706 172.347 158.346 172.911C156.985 173.475 155.822 174.429 155.004 175.653C154.186 176.878 153.749 178.318 153.749 179.79C153.749 181.765 154.534 183.659 155.93 185.055C157.326 186.452 159.22 187.236 161.195 187.236Z" fill="#50EA97"/>
<path d="M179.058 186.937C180.47 186.937 181.85 186.519 183.024 185.734C184.198 184.949 185.112 183.834 185.652 182.53C186.192 181.225 186.332 179.79 186.056 178.405C185.78 177.02 185.099 175.749 184.1 174.752C183.101 173.754 181.828 173.075 180.443 172.801C179.058 172.528 177.623 172.671 176.319 173.213C175.015 173.755 173.902 174.671 173.119 175.846C172.337 177.021 171.92 178.402 171.923 179.814C171.923 180.751 172.107 181.678 172.466 182.543C172.825 183.408 173.351 184.194 174.013 184.855C174.676 185.517 175.463 186.042 176.329 186.399C177.194 186.756 178.122 186.939 179.058 186.937Z" fill="#50EA97"/>
<path d="M196.926 186.207C198.19 186.207 199.426 185.832 200.477 185.13C201.528 184.427 202.347 183.429 202.831 182.261C203.315 181.094 203.441 179.808 203.195 178.569C202.948 177.329 202.339 176.19 201.446 175.296C200.552 174.403 199.413 173.794 198.173 173.547C196.933 173.301 195.648 173.427 194.481 173.911C193.313 174.395 192.315 175.214 191.612 176.265C190.91 177.316 190.535 178.552 190.535 179.816C190.535 181.511 191.209 183.136 192.407 184.335C193.606 185.533 195.231 186.207 196.926 186.207Z" fill="#50EA97"/>
<path d="M214.78 185.411C217.871 185.411 220.377 182.905 220.377 179.814C220.377 176.723 217.871 174.217 214.78 174.217C211.689 174.217 209.183 176.723 209.183 179.814C209.183 182.905 211.689 185.411 214.78 185.411Z" fill="#50EA97"/>
</g>
<defs>
<clipPath id="clip0_106_2171">
<rect width="322.5" height="322.5" fill="white" transform="translate(0 0.75)"/>
</clipPath>
</defs>
</svg>
