<svg width="182" height="330" viewBox="0 0 182 330" fill="none" xmlns="http://www.w3.org/2000/svg">
<g opacity="0.5" clip-path="url(#clip0_106_1871)">
<path d="M117.131 0.59493C117.191 0.59493 117.24 0.546339 117.24 0.486399C117.24 0.426459 117.191 0.377869 117.131 0.377869C117.071 0.377869 117.023 0.426459 117.023 0.486399C117.023 0.546339 117.071 0.59493 117.131 0.59493Z" fill="#50EA97"/>
<path d="M136.565 0.7554C136.713 0.7554 136.834 0.63483 136.834 0.486099C136.834 0.337367 136.713 0.216797 136.565 0.216797C136.416 0.216797 136.295 0.337367 136.295 0.486099C136.295 0.63483 136.416 0.7554 136.565 0.7554Z" fill="#50EA97"/>
<path d="M156.001 0.918346C156.115 0.918346 156.225 0.872818 156.306 0.791762C156.387 0.710705 156.433 0.600751 156.433 0.48612C156.433 0.371489 156.387 0.261535 156.306 0.180479C156.225 0.0994224 156.115 0.053894 156.001 0.053894C155.886 0.053894 155.776 0.0994224 155.695 0.180479C155.614 0.261535 155.568 0.371489 155.568 0.48612C155.568 0.600751 155.614 0.710705 155.695 0.791762C155.776 0.872818 155.886 0.918346 156.001 0.918346Z" fill="#50EA97"/>
<path d="M175.444 0.972508C175.54 0.972508 175.634 0.943952 175.714 0.890523C175.794 0.837094 175.856 0.761157 175.893 0.672308C175.93 0.583458 175.939 0.48572 175.92 0.391398C175.902 0.297076 175.855 0.210435 175.787 0.142433C175.719 0.0744306 175.633 0.0280975 175.538 0.00933566C175.444 -0.00942614 175.346 0.000232463 175.257 0.0370351C175.169 0.0738377 175.093 0.13613 175.039 0.216092C174.986 0.296054 174.957 0.390074 174.957 0.486244C174.957 0.615203 175.008 0.738866 175.1 0.830054C175.191 0.921242 175.315 0.972508 175.444 0.972508Z" fill="#50EA97"/>
<path d="M78.2417 20.0845C78.3312 20.0845 78.4037 20.0119 78.4037 19.9224C78.4037 19.8329 78.3312 19.7603 78.2417 19.7603C78.1522 19.7603 78.0796 19.8329 78.0796 19.9224C78.0796 20.0119 78.1522 20.0845 78.2417 20.0845Z" fill="#50EA97"/>
<path d="M97.6789 20.4094C97.9474 20.4094 98.1651 20.1917 98.1651 19.9232C98.1651 19.6546 97.9474 19.437 97.6789 19.437C97.4103 19.437 97.1926 19.6546 97.1926 19.9232C97.1926 20.1917 97.4103 20.4094 97.6789 20.4094Z" fill="#50EA97"/>
<path d="M117.117 20.8409C117.361 20.8409 117.595 20.7441 117.767 20.5719C117.939 20.3996 118.036 20.166 118.036 19.9225C118.036 19.6789 117.939 19.4453 117.767 19.273C117.595 19.1008 117.361 19.004 117.117 19.004C116.874 19.004 116.64 19.1008 116.468 19.273C116.296 19.4453 116.199 19.6789 116.199 19.9225C116.199 20.166 116.296 20.3996 116.468 20.5719C116.64 20.7441 116.874 20.8409 117.117 20.8409Z" fill="#50EA97"/>
<path d="M136.55 21.1115C136.786 21.1142 137.017 21.0468 137.214 20.9178C137.411 20.7889 137.566 20.6042 137.658 20.3873C137.75 20.1703 137.775 19.9309 137.731 19.6995C137.687 19.468 137.575 19.255 137.409 19.0874C137.243 18.9198 137.031 18.8052 136.801 18.7583C136.57 18.7113 136.33 18.7341 136.112 18.8236C135.894 18.9132 135.708 19.0655 135.576 19.2612C135.445 19.457 135.375 19.6873 135.375 19.923C135.373 20.0784 135.402 20.2327 135.461 20.3768C135.519 20.5209 135.605 20.6521 135.714 20.7626C135.824 20.8732 135.954 20.9609 136.097 21.0208C136.241 21.0807 136.395 21.1115 136.55 21.1115Z" fill="#50EA97"/>
<path d="M156.003 21.2735C156.27 21.2735 156.532 21.1943 156.754 21.0459C156.976 20.8974 157.149 20.6865 157.251 20.4397C157.353 20.1929 157.38 19.9213 157.328 19.6593C157.276 19.3973 157.147 19.1566 156.958 18.9677C156.769 18.7789 156.529 18.6502 156.267 18.5981C156.005 18.546 155.733 18.5727 155.486 18.675C155.24 18.7772 155.029 18.9503 154.88 19.1724C154.732 19.3946 154.653 19.6557 154.653 19.9228C154.653 20.2811 154.795 20.6246 155.048 20.8779C155.301 21.1312 155.645 21.2735 156.003 21.2735Z" fill="#50EA97"/>
<path d="M175.441 21.3819C175.708 21.3819 175.969 21.3027 176.191 21.1543C176.413 21.0059 176.586 20.7949 176.689 20.5481C176.791 20.3013 176.818 20.0297 176.765 19.7677C176.713 19.5057 176.585 19.2651 176.396 19.0762C176.207 18.8873 175.966 18.7586 175.704 18.7065C175.442 18.6544 175.171 18.6811 174.924 18.7833C174.677 18.8856 174.466 19.0587 174.318 19.2808C174.169 19.5029 174.09 19.7641 174.09 20.0312C174.09 20.3894 174.232 20.733 174.486 20.9863C174.739 21.2396 175.083 21.3819 175.441 21.3819Z" fill="#50EA97"/>
<path d="M58.8096 39.6269C58.9583 39.6269 59.0789 39.5063 59.0789 39.3576C59.0789 39.2088 58.9583 39.0883 58.8096 39.0883C58.6609 39.0883 58.5403 39.2088 58.5403 39.3576C58.5403 39.5063 58.6609 39.6269 58.8096 39.6269Z" fill="#50EA97"/>
<path d="M78.2408 40.1687C78.346 40.1705 78.4504 40.1512 78.5479 40.1118C78.6454 40.0724 78.734 40.0137 78.8084 39.9394C78.8828 39.865 78.9414 39.7764 78.9808 39.6789C79.0202 39.5814 79.0396 39.477 79.0377 39.3718C79.0395 39.266 79.0202 39.161 78.981 39.0627C78.9417 38.9645 78.8833 38.875 78.8091 38.7996C78.735 38.7241 78.6465 38.6642 78.5489 38.6233C78.4514 38.5824 78.3466 38.5614 78.2408 38.5614C78.1344 38.5614 78.029 38.5824 77.9307 38.6231C77.8324 38.6638 77.743 38.7235 77.6678 38.7987C77.5925 38.874 77.5328 38.9634 77.4921 39.0617C77.4514 39.16 77.4304 39.2654 77.4304 39.3718C77.4304 39.4776 77.4515 39.5824 77.4924 39.6799C77.5332 39.7775 77.5931 39.866 77.6686 39.9401C77.744 40.0143 77.8335 40.0727 77.9317 40.1119C78.03 40.1512 78.135 40.1705 78.2408 40.1687Z" fill="#50EA97"/>
<path d="M97.6856 40.7093C98.4316 40.7093 99.0363 40.1046 99.0363 39.3586C99.0363 38.6127 98.4316 38.0079 97.6856 38.0079C96.9397 38.0079 96.335 38.6127 96.335 39.3586C96.335 40.1046 96.9397 40.7093 97.6856 40.7093Z" fill="#50EA97"/>
<path d="M117.129 41.1412C118.114 41.1412 118.912 40.343 118.912 39.3583C118.912 38.3737 118.114 37.5754 117.129 37.5754C116.144 37.5754 115.346 38.3737 115.346 39.3583C115.346 40.343 116.144 41.1412 117.129 41.1412Z" fill="#50EA97"/>
<path d="M136.558 41.4655C136.976 41.4682 137.385 41.3466 137.733 41.1161C138.082 40.8856 138.354 40.5566 138.515 40.1711C138.676 39.7855 138.719 39.3608 138.638 38.9508C138.558 38.5408 138.357 38.1641 138.061 37.8686C137.766 37.5731 137.389 37.3722 136.979 37.2913C136.569 37.2104 136.144 37.2533 135.759 37.4145C135.373 37.5756 135.044 37.8477 134.814 38.1963C134.583 38.5449 134.461 38.9541 134.464 39.372C134.464 39.9272 134.685 40.4597 135.077 40.8524C135.47 41.245 136.002 41.4655 136.558 41.4655Z" fill="#50EA97"/>
<path d="M156.002 41.6417C156.462 41.6417 156.912 41.5051 157.294 41.2492C157.676 40.9933 157.974 40.6297 158.149 40.2044C158.325 39.7791 158.37 39.3113 158.279 38.8603C158.189 38.4093 157.966 37.9954 157.64 37.671C157.314 37.3467 156.898 37.1265 156.447 37.0384C155.995 36.9503 155.528 36.9982 155.103 37.1761C154.679 37.354 154.317 37.6539 154.064 38.0377C153.81 38.4215 153.676 38.872 153.679 39.3321C153.682 39.9459 153.929 40.5333 154.364 40.966C154.799 41.3988 155.388 41.6417 156.002 41.6417Z" fill="#50EA97"/>
<path d="M175.44 41.7357C175.911 41.7357 176.371 41.5959 176.762 41.3341C177.154 41.0723 177.458 40.7002 177.638 40.2651C177.817 39.8299 177.864 39.3513 177.771 38.8898C177.678 38.4283 177.45 38.0047 177.116 37.6728C176.783 37.3409 176.358 37.1156 175.896 37.0254C175.434 36.9352 174.955 36.9842 174.521 37.1662C174.087 37.3482 173.717 37.6549 173.457 38.0476C173.198 38.4403 173.06 38.9013 173.063 39.372C173.063 39.6836 173.125 39.992 173.244 40.2797C173.364 40.5673 173.539 40.8285 173.76 41.0482C173.981 41.2678 174.243 41.4417 174.532 41.5597C174.82 41.6776 175.129 41.7375 175.44 41.7357Z" fill="#50EA97"/>
<path d="M39.3577 59.0766C39.5064 59.0766 39.627 58.956 39.627 58.8073C39.627 58.6585 39.5064 58.538 39.3577 58.538C39.2089 58.538 39.0884 58.6585 39.0884 58.8073C39.0884 58.956 39.2089 59.0766 39.3577 59.0766Z" fill="#50EA97"/>
<path d="M58.7952 59.7268C58.9768 59.7268 59.1544 59.6729 59.3054 59.572C59.4565 59.4711 59.5742 59.3277 59.6437 59.1598C59.7132 58.992 59.7314 58.8073 59.696 58.6292C59.6605 58.451 59.5731 58.2873 59.4446 58.1589C59.3162 58.0304 59.1525 57.943 58.9743 57.9075C58.7962 57.8721 58.6115 57.8903 58.4437 57.9598C58.2759 58.0293 58.1324 58.1471 58.0315 58.2981C57.9306 58.4491 57.8767 58.6267 57.8767 58.8083C57.8767 59.0519 57.9735 59.2856 58.1457 59.4578C58.318 59.63 58.5516 59.7268 58.7952 59.7268Z" fill="#50EA97"/>
<path d="M78.2462 60.3755C79.1115 60.3755 79.813 59.674 79.813 58.8087C79.813 57.9434 79.1115 57.2419 78.2462 57.2419C77.3809 57.2419 76.6794 57.9434 76.6794 58.8087C76.6794 59.674 77.3809 60.3755 78.2462 60.3755Z" fill="#50EA97"/>
<path d="M97.6834 60.956C98.2253 60.9131 98.7311 60.6675 99.1 60.2683C99.4689 59.869 99.6737 59.3453 99.6737 58.8017C99.6737 58.2581 99.4689 57.7345 99.1 57.3352C98.7311 56.9359 98.2253 56.6903 97.6834 56.6474C97.3861 56.6238 97.0872 56.662 96.8054 56.7596C96.5237 56.8572 96.2651 57.012 96.0461 57.2144C95.8271 57.4167 95.6523 57.6622 95.5328 57.9354C95.4133 58.2086 95.3516 58.5035 95.3516 58.8017C95.3516 59.0999 95.4133 59.3949 95.5328 59.6681C95.6523 59.9412 95.8271 60.1867 96.0461 60.3891C96.2651 60.5914 96.5237 60.7462 96.8054 60.8438C97.0872 60.9414 97.3861 60.9796 97.6834 60.956Z" fill="#50EA97"/>
<path d="M117.123 61.4423C117.66 61.4557 118.188 61.3087 118.641 61.0202C119.094 60.7316 119.451 60.3146 119.666 59.8223C119.881 59.3301 119.944 58.7849 119.848 58.2565C119.751 57.7281 119.499 57.2405 119.124 56.856C118.749 56.4714 118.268 56.2073 117.742 56.0975C117.217 55.9877 116.67 56.0371 116.173 56.2394C115.675 56.4417 115.249 56.7878 114.949 57.2334C114.649 57.6789 114.489 58.2038 114.489 58.7409C114.489 59.4458 114.764 60.1229 115.256 60.6276C115.748 61.1323 116.418 61.4246 117.123 61.4423Z" fill="#50EA97"/>
<path d="M136.565 61.8204C138.229 61.8204 139.577 60.4719 139.577 58.8084C139.577 57.1449 138.229 55.7964 136.565 55.7964C134.902 55.7964 133.553 57.1449 133.553 58.8084C133.553 60.4719 134.902 61.8204 136.565 61.8204Z" fill="#50EA97"/>
<path d="M156.001 62.037C157.784 62.037 159.229 60.5918 159.229 58.8089C159.229 57.0261 157.784 55.5808 156.001 55.5808C154.218 55.5808 152.773 57.0261 152.773 58.8089C152.773 60.5918 154.218 62.037 156.001 62.037Z" fill="#50EA97"/>
<path d="M175.44 62.1444C176.104 62.1471 176.753 61.9525 177.306 61.5855C177.859 61.2185 178.29 60.6955 178.546 60.0828C178.801 59.4702 178.868 58.7956 178.739 58.1446C178.611 57.4936 178.291 56.8954 177.822 56.4262C177.353 55.9569 176.755 55.6376 176.104 55.5088C175.453 55.38 174.778 55.4474 174.165 55.7026C173.553 55.9578 173.03 56.3893 172.663 56.9422C172.296 57.4951 172.101 58.1446 172.104 58.8082C172.104 59.693 172.455 60.5416 173.081 61.1672C173.707 61.7929 174.555 62.1444 175.44 62.1444Z" fill="#50EA97"/>
<path d="M19.9194 78.4074C20.0089 78.4074 20.0815 78.3348 20.0815 78.2453C20.0815 78.1558 20.0089 78.0833 19.9194 78.0833C19.8299 78.0833 19.7573 78.1558 19.7573 78.2453C19.7573 78.3348 19.8299 78.4074 19.9194 78.4074Z" fill="#50EA97"/>
<path d="M39.3561 79.0549C39.5164 79.0549 39.673 79.0073 39.8063 78.9183C39.9396 78.8292 40.0434 78.7027 40.1048 78.5546C40.1661 78.4065 40.1822 78.2436 40.1509 78.0864C40.1196 77.9292 40.0424 77.7848 39.9291 77.6715C39.8158 77.5581 39.6714 77.4809 39.5142 77.4497C39.357 77.4184 39.194 77.4344 39.0459 77.4958C38.8979 77.5571 38.7713 77.661 38.6822 77.7942C38.5932 77.9275 38.5457 78.0842 38.5457 78.2445C38.5457 78.4594 38.631 78.6655 38.783 78.8175C38.935 78.9695 39.1411 79.0549 39.3561 79.0549Z" fill="#50EA97"/>
<path d="M58.8087 79.8113C59.674 79.8113 60.3755 79.1098 60.3755 78.2445C60.3755 77.3792 59.674 76.6777 58.8087 76.6777C57.9434 76.6777 57.2419 77.3792 57.2419 78.2445C57.2419 79.1098 57.9434 79.8113 58.8087 79.8113Z" fill="#50EA97"/>
<path d="M78.2441 80.5139C78.6917 80.5086 79.1278 80.371 79.4974 80.1185C79.867 79.8659 80.1536 79.5097 80.3212 79.0946C80.4888 78.6795 80.5299 78.2242 80.4393 77.7858C80.3487 77.3474 80.1305 76.9456 79.8121 76.631C79.4937 76.3164 79.0894 76.1029 78.65 76.0175C78.2106 75.9321 77.7557 75.9786 77.3426 76.1511C76.9296 76.3236 76.5768 76.6145 76.3286 76.987C76.0805 77.3596 75.948 77.7972 75.948 78.2448C75.948 78.5451 76.0076 78.8424 76.1233 79.1195C76.239 79.3965 76.4086 79.6479 76.6221 79.859C76.8357 80.07 77.0891 80.2366 77.3675 80.349C77.6459 80.4615 77.9439 80.5175 78.2441 80.5139Z" fill="#50EA97"/>
<path d="M97.6828 81.1621C99.2941 81.1621 100.6 79.8559 100.6 78.2446C100.6 76.6333 99.2941 75.3271 97.6828 75.3271C96.0716 75.3271 94.7654 76.6333 94.7654 78.2446C94.7654 79.8559 96.0716 81.1621 97.6828 81.1621Z" fill="#50EA97"/>
<path d="M117.119 81.7024C117.803 81.7051 118.473 81.5046 119.044 81.1263C119.614 80.748 120.059 80.2089 120.323 79.5773C120.587 78.9457 120.657 78.2501 120.525 77.5784C120.394 76.9068 120.065 76.2895 119.582 75.8045C119.099 75.3196 118.483 74.9889 117.812 74.8544C117.141 74.7199 116.445 74.7876 115.812 75.0489C115.18 75.3102 114.639 75.7534 114.258 76.3223C113.878 76.8912 113.675 77.5603 113.675 78.2447C113.675 79.1594 114.037 80.0369 114.683 80.6849C115.328 81.333 116.204 81.6989 117.119 81.7024Z" fill="#50EA97"/>
<path d="M136.553 82.1613C137.318 82.1613 138.066 81.9349 138.702 81.5107C139.339 81.0865 139.836 80.4835 140.13 79.7775C140.425 79.0716 140.504 78.2942 140.358 77.5434C140.211 76.7926 139.846 76.1018 139.308 75.5581C138.77 75.0144 138.083 74.6421 137.334 74.4879C136.584 74.3338 135.806 74.4048 135.097 74.692C134.388 74.9792 133.78 75.4698 133.349 76.1019C132.919 76.734 132.684 77.4795 132.676 78.2444C132.671 78.7568 132.767 79.2653 132.96 79.7403C133.152 80.2153 133.437 80.6474 133.797 81.0116C134.158 81.3759 134.587 81.6651 135.06 81.8624C135.533 82.0598 136.04 82.1614 136.553 82.1613Z" fill="#50EA97"/>
<path d="M156.003 82.3915C156.822 82.3889 157.623 82.1434 158.303 81.6861C158.983 81.2289 159.512 80.5803 159.824 79.8224C160.136 79.0645 160.216 78.2312 160.054 77.4277C159.893 76.6243 159.497 75.8867 158.916 75.3081C158.336 74.7295 157.597 74.336 156.793 74.1771C155.989 74.0182 155.156 74.1011 154.399 74.4153C153.642 74.7295 152.995 75.261 152.54 75.9426C152.085 76.6242 151.843 77.4254 151.843 78.2449C151.843 78.7906 151.95 79.3309 152.159 79.8349C152.369 80.3389 152.675 80.7966 153.062 81.1818C153.448 81.567 153.907 81.8722 154.412 82.0797C154.916 82.2873 155.457 82.3933 156.003 82.3915Z" fill="#50EA97"/>
<path d="M175.438 82.4992C176.279 82.4992 177.102 82.2497 177.801 81.7822C178.501 81.3147 179.046 80.6502 179.369 79.8728C179.691 79.0954 179.775 78.2399 179.611 77.4146C179.446 76.5893 179.041 75.8312 178.446 75.2361C177.851 74.6411 177.093 74.2359 176.268 74.0717C175.442 73.9076 174.587 73.9918 173.81 74.3139C173.032 74.6359 172.368 75.1812 171.9 75.8809C171.433 76.5805 171.183 77.4031 171.183 78.2446C171.183 79.373 171.631 80.4552 172.429 81.2531C173.227 82.051 174.309 82.4992 175.438 82.4992Z" fill="#50EA97"/>
<path d="M19.9237 98.1676C20.0527 98.1676 20.1764 98.1163 20.2676 98.0251C20.3588 97.934 20.41 97.8103 20.41 97.6813C20.41 97.5523 20.3588 97.4287 20.2676 97.3375C20.1764 97.2463 20.0527 97.1951 19.9237 97.1951C19.7948 97.1951 19.6711 97.2463 19.5799 97.3375C19.4887 97.4287 19.4375 97.5523 19.4375 97.6813C19.4375 97.8103 19.4887 97.934 19.5799 98.0251C19.6711 98.1163 19.7948 98.1676 19.9237 98.1676Z" fill="#50EA97"/>
<path d="M39.3634 99.0315C39.6305 99.0315 39.8916 98.9523 40.1138 98.8039C40.3359 98.6555 40.509 98.4446 40.6112 98.1977C40.7135 97.9509 40.7402 97.6794 40.6881 97.4174C40.636 97.1554 40.5073 96.9147 40.3184 96.7258C40.1295 96.5369 39.8889 96.4083 39.6269 96.3562C39.3649 96.304 39.0933 96.3308 38.8465 96.433C38.5997 96.5353 38.3887 96.7083 38.2403 96.9305C38.0919 97.1526 38.0127 97.4137 38.0127 97.6809C38.0127 98.0391 38.155 98.3827 38.4083 98.636C38.6616 98.8893 39.0051 99.0315 39.3634 99.0315Z" fill="#50EA97"/>
<path d="M58.7985 99.842C59.2264 99.8447 59.6456 99.7202 60.0027 99.4844C60.3599 99.2486 60.639 98.912 60.8046 98.5174C60.9703 98.1227 61.015 97.6878 60.9331 97.2677C60.8513 96.8476 60.6465 96.4613 60.3449 96.1577C60.0432 95.8541 59.6581 95.6469 59.2386 95.5624C58.819 95.4779 58.3838 95.5199 57.9881 95.6831C57.5924 95.8463 57.2541 96.1233 57.0161 96.4789C56.778 96.8346 56.6509 97.2529 56.6509 97.6809C56.6509 98.2517 56.8767 98.7994 57.2791 99.2043C57.6814 99.6092 58.2276 99.8384 58.7985 99.842Z" fill="#50EA97"/>
<path d="M78.2453 100.598C78.8224 100.598 79.3864 100.427 79.8662 100.107C80.346 99.7862 80.7199 99.3306 80.9407 98.7975C81.1615 98.2644 81.2193 97.6778 81.1067 97.1119C80.9942 96.5459 80.7163 96.0261 80.3083 95.6181C79.9003 95.2101 79.3804 94.9322 78.8145 94.8196C78.2486 94.707 77.662 94.7648 77.1289 94.9856C76.5958 95.2065 76.1401 95.5804 75.8196 96.0602C75.499 96.54 75.3279 97.104 75.3279 97.681C75.3279 98.4548 75.6352 99.1969 76.1824 99.744C76.7295 100.291 77.4716 100.598 78.2453 100.598Z" fill="#50EA97"/>
<path d="M97.6826 101.301C98.3985 101.301 99.0984 101.088 99.6936 100.691C100.289 100.293 100.753 99.7275 101.027 99.0661C101.301 98.4047 101.373 97.6769 101.233 96.9747C101.093 96.2725 100.748 95.6275 100.242 95.1212C99.7359 94.615 99.0909 94.2703 98.3888 94.1306C97.6866 93.9909 96.9588 94.0626 96.2973 94.3366C95.6359 94.6106 95.0706 95.0745 94.6728 95.6698C94.2751 96.2651 94.0628 96.9649 94.0628 97.6808C94.061 98.1567 94.1534 98.6282 94.3347 99.0682C94.516 99.5082 94.7825 99.908 95.119 100.244C95.4555 100.581 95.8552 100.847 96.2952 101.029C96.7352 101.21 97.2067 101.302 97.6826 101.301Z" fill="#50EA97"/>
<path d="M117.115 101.949C117.96 101.952 118.787 101.704 119.49 101.237C120.194 100.769 120.743 100.104 121.068 99.3239C121.393 98.5443 121.48 97.6857 121.317 96.8568C121.154 96.028 120.748 95.2662 120.152 94.668C119.555 94.0697 118.795 93.6619 117.967 93.4961C117.138 93.3303 116.279 93.414 115.499 93.7367C114.718 94.0593 114.051 94.6064 113.581 95.3085C113.112 96.0107 112.861 96.8364 112.861 97.6812C112.859 98.241 112.968 98.7957 113.181 99.3135C113.394 99.8313 113.707 100.302 114.102 100.698C114.497 101.095 114.967 101.41 115.484 101.624C116.001 101.839 116.556 101.949 117.115 101.949Z" fill="#50EA97"/>
<path d="M136.569 102.422C139.188 102.422 141.31 100.3 141.31 97.6815C141.31 95.0632 139.188 92.9407 136.569 92.9407C133.951 92.9407 131.829 95.0632 131.829 97.6815C131.829 100.3 133.951 102.422 136.569 102.422Z" fill="#50EA97"/>
<path d="M156.002 102.76C157.007 102.763 157.99 102.467 158.827 101.911C159.664 101.354 160.317 100.562 160.703 99.6341C161.09 98.7064 161.192 97.6848 160.998 96.6988C160.803 95.7128 160.321 94.8066 159.611 94.095C158.901 93.3834 157.996 92.8984 157.011 92.7014C156.025 92.5043 155.004 92.6041 154.075 92.988C153.146 93.372 152.352 94.023 151.793 94.8584C151.235 95.6939 150.937 96.6763 150.937 97.6813C150.935 98.3476 151.064 99.0077 151.318 99.6237C151.572 100.24 151.945 100.8 152.415 101.272C152.886 101.743 153.445 102.118 154.06 102.373C154.676 102.628 155.335 102.76 156.002 102.76Z" fill="#50EA97"/>
<path d="M175.437 102.921C176.474 102.924 177.488 102.619 178.352 102.044C179.215 101.47 179.889 100.653 180.288 99.6953C180.687 98.7379 180.792 97.6838 180.592 96.6663C180.391 95.6489 179.893 94.7138 179.161 93.9795C178.428 93.2453 177.494 92.7448 176.477 92.5415C175.461 92.3382 174.406 92.4412 173.448 92.8374C172.489 93.2337 171.67 93.9054 171.094 94.7675C170.517 95.6296 170.209 96.6433 170.209 97.6804C170.209 99.068 170.76 100.399 171.74 101.381C172.72 102.364 174.049 102.917 175.437 102.921Z" fill="#50EA97"/>
<path d="M0.471814 117.28C0.500598 117.28 0.528198 117.268 0.548551 117.248C0.568905 117.227 0.580337 117.2 0.580337 117.171C0.582655 117.156 0.581452 117.141 0.576818 117.127C0.572184 117.113 0.564254 117.1 0.553675 117.089C0.543095 117.079 0.530164 117.071 0.515938 117.066C0.501711 117.061 0.486596 117.06 0.471814 117.063C0.44303 117.063 0.41542 117.074 0.395067 117.094C0.374714 117.115 0.363281 117.142 0.363281 117.171C0.366229 117.199 0.378608 117.225 0.398358 117.245C0.418109 117.264 0.444039 117.277 0.471814 117.28Z" fill="#50EA97"/>
<path d="M19.9248 118.049C20.1684 118.049 20.402 117.952 20.5743 117.78C20.7465 117.608 20.8433 117.374 20.8433 117.131C20.8433 116.887 20.7465 116.654 20.5743 116.481C20.402 116.309 20.1684 116.212 19.9248 116.212C19.6812 116.212 19.4476 116.309 19.2754 116.481C19.1031 116.654 19.0063 116.887 19.0063 117.131C19.0063 117.374 19.1031 117.608 19.2754 117.78C19.4476 117.952 19.6812 118.049 19.9248 118.049Z" fill="#50EA97"/>
<path d="M39.3596 118.901C39.7128 118.901 40.058 118.796 40.3515 118.599C40.645 118.403 40.8735 118.123 41.008 117.797C41.1426 117.47 41.1771 117.111 41.1072 116.765C41.0373 116.419 40.8661 116.101 40.6155 115.852C40.3648 115.603 40.0458 115.435 39.6991 115.367C39.3523 115.3 38.9934 115.337 38.6679 115.474C38.3424 115.611 38.0649 115.842 37.8706 116.137C37.6763 116.432 37.574 116.778 37.5767 117.131C37.5803 117.602 37.7697 118.052 38.1037 118.383C38.4376 118.715 38.8891 118.901 39.3596 118.901Z" fill="#50EA97"/>
<path d="M58.8008 119.764C59.3379 119.764 59.8628 119.604 60.3084 119.304C60.754 119.004 61.1 118.578 61.3024 118.08C61.5047 117.583 61.5541 117.036 61.4443 116.511C61.3344 115.985 61.0704 115.504 60.6858 115.129C60.3012 114.754 59.8136 114.502 59.2852 114.406C58.7568 114.309 58.2117 114.372 57.7194 114.587C57.2271 114.802 56.8101 115.159 56.5215 115.612C56.233 116.065 56.086 116.594 56.0995 117.13C56.1171 117.835 56.4095 118.505 56.9142 118.997C57.4189 119.489 58.0959 119.764 58.8008 119.764Z" fill="#50EA97"/>
<path d="M78.2478 120.575C78.9322 120.575 79.6013 120.371 80.1702 119.991C80.7391 119.61 81.1823 119.069 81.4436 118.437C81.7049 117.804 81.7726 117.108 81.6381 116.437C81.5035 115.766 81.1729 115.15 80.688 114.667C80.203 114.184 79.5857 113.856 78.9141 113.724C78.2424 113.592 77.5468 113.662 76.9152 113.926C76.2836 114.19 75.7445 114.635 75.3662 115.206C74.9879 115.776 74.7874 116.446 74.7901 117.13C74.7901 117.584 74.8796 118.033 75.0535 118.451C75.2275 118.87 75.4824 119.25 75.8036 119.57C76.1249 119.89 76.5062 120.144 76.9256 120.316C77.345 120.489 77.7944 120.576 78.2478 120.575Z" fill="#50EA97"/>
<path d="M97.6829 121.331C98.5282 121.333 99.3552 121.085 100.059 120.617C100.763 120.149 101.312 119.482 101.637 118.702C101.962 117.922 102.047 117.062 101.883 116.233C101.719 115.404 101.312 114.642 100.714 114.044C100.117 113.447 99.3549 113.04 98.5257 112.876C97.6965 112.711 96.8372 112.797 96.0568 113.122C95.2763 113.447 94.6099 113.996 94.1419 114.7C93.674 115.404 93.4256 116.231 93.4282 117.076C93.4282 118.204 93.8765 119.287 94.6744 120.084C95.4723 120.882 96.5545 121.331 97.6829 121.331Z" fill="#50EA97"/>
<path d="M117.115 122.087C118.1 122.09 119.063 121.8 119.882 121.255C120.701 120.71 121.341 119.934 121.718 119.025C122.096 118.116 122.196 117.116 122.005 116.15C121.813 115.185 121.34 114.298 120.644 113.602C119.948 112.906 119.061 112.432 118.095 112.241C117.13 112.05 116.129 112.149 115.221 112.527C114.312 112.905 113.536 113.544 112.991 114.364C112.445 115.183 112.156 116.146 112.158 117.13C112.158 117.781 112.287 118.426 112.536 119.027C112.785 119.629 113.15 120.175 113.61 120.635C114.071 121.096 114.617 121.461 115.218 121.71C115.82 121.959 116.464 122.087 117.115 122.087Z" fill="#50EA97"/>
<path d="M136.556 122.682C137.654 122.682 138.727 122.356 139.64 121.746C140.553 121.136 141.265 120.269 141.685 119.255C142.105 118.241 142.215 117.125 142.001 116.048C141.787 114.971 141.258 113.982 140.482 113.205C139.705 112.429 138.716 111.9 137.639 111.686C136.562 111.472 135.446 111.582 134.432 112.002C133.417 112.422 132.55 113.134 131.94 114.047C131.33 114.96 131.005 116.033 131.005 117.131C131.005 118.603 131.59 120.015 132.631 121.056C133.672 122.097 135.084 122.682 136.556 122.682Z" fill="#50EA97"/>
<path d="M156.004 123.115C157.188 123.115 158.345 122.764 159.329 122.106C160.313 121.449 161.08 120.514 161.533 119.421C161.985 118.328 162.104 117.124 161.873 115.964C161.642 114.803 161.072 113.737 160.235 112.9C159.399 112.063 158.332 111.493 157.172 111.263C156.011 111.032 154.808 111.15 153.715 111.603C152.621 112.056 151.687 112.823 151.029 113.807C150.372 114.791 150.021 115.948 150.021 117.131C150.025 118.717 150.656 120.237 151.777 121.358C152.899 122.479 154.419 123.111 156.004 123.115Z" fill="#50EA97"/>
<path d="M175.439 123.276C176.655 123.276 177.843 122.915 178.854 122.24C179.864 121.565 180.652 120.605 181.117 119.482C181.582 118.359 181.704 117.124 181.467 115.931C181.23 114.739 180.644 113.644 179.785 112.785C178.925 111.925 177.83 111.34 176.638 111.103C175.446 110.866 174.21 110.987 173.087 111.453C171.965 111.918 171.005 112.705 170.329 113.716C169.654 114.727 169.294 115.915 169.294 117.13C169.294 118.76 169.941 120.323 171.094 121.476C172.246 122.628 173.809 123.276 175.439 123.276Z" fill="#50EA97"/>
<path d="M0.468038 136.836C0.539462 136.836 0.607956 136.807 0.658459 136.757C0.708963 136.706 0.737336 136.638 0.737336 136.567C0.737336 136.495 0.708963 136.427 0.658459 136.376C0.607956 136.326 0.539462 136.297 0.468038 136.297C0.396615 136.297 0.328111 136.326 0.277607 136.376C0.227103 136.427 0.19873 136.495 0.19873 136.567C0.19873 136.638 0.227103 136.706 0.277607 136.757C0.328111 136.807 0.396615 136.836 0.468038 136.836Z" fill="#50EA97"/>
<path d="M19.9237 137.756C20.2389 137.756 20.5413 137.631 20.7642 137.408C20.9871 137.185 21.1123 136.882 21.1123 136.567C21.1123 136.252 20.9871 135.95 20.7642 135.727C20.5413 135.504 20.2389 135.379 19.9237 135.379C19.6085 135.379 19.3061 135.504 19.0832 135.727C18.8603 135.95 18.7351 136.252 18.7351 136.567C18.7351 136.882 18.8603 137.185 19.0832 137.408C19.3061 137.631 19.6085 137.756 19.9237 137.756Z" fill="#50EA97"/>
<path d="M39.3544 138.673C39.7711 138.673 40.1785 138.55 40.525 138.318C40.8715 138.087 41.1416 137.758 41.301 137.373C41.4605 136.988 41.5022 136.564 41.4209 136.155C41.3396 135.746 41.139 135.371 40.8443 135.076C40.5496 134.782 40.1742 134.581 39.7654 134.5C39.3567 134.418 38.933 134.46 38.548 134.62C38.163 134.779 37.8339 135.049 37.6024 135.396C37.3709 135.742 37.2473 136.15 37.2473 136.566C37.2473 137.125 37.4693 137.661 37.8645 138.056C38.2596 138.451 38.7955 138.673 39.3544 138.673Z" fill="#50EA97"/>
<path d="M58.7957 139.579C59.3953 139.582 59.9821 139.407 60.4817 139.075C60.9813 138.744 61.3712 138.271 61.6018 137.718C61.8325 137.165 61.8935 136.555 61.7772 135.967C61.6609 135.379 61.3725 134.839 60.9486 134.415C60.5246 133.991 59.9843 133.702 59.3961 133.586C58.808 133.47 58.1986 133.531 57.6452 133.761C57.0918 133.992 56.6194 134.382 56.288 134.881C55.9566 135.381 55.7811 135.968 55.7837 136.567C55.7837 137.366 56.1011 138.132 56.6659 138.697C57.2308 139.262 57.9969 139.579 58.7957 139.579Z" fill="#50EA97"/>
<path d="M78.2439 140.444C79.0101 140.441 79.7582 140.211 80.3939 139.784C81.0296 139.356 81.5243 138.75 81.8157 138.041C82.107 137.333 82.1818 136.554 82.0307 135.803C81.8797 135.052 81.5094 134.362 80.9667 133.822C80.4241 133.281 79.7333 132.913 78.9817 132.764C78.2302 132.616 77.4514 132.693 76.7439 132.987C76.0364 133.281 75.4317 133.778 75.0064 134.415C74.581 135.052 74.354 135.801 74.354 136.567C74.354 137.078 74.4547 137.583 74.6504 138.054C74.846 138.525 75.1328 138.953 75.4942 139.313C75.8556 139.673 76.2845 139.959 76.7563 140.153C77.2282 140.347 77.7337 140.446 78.2439 140.444Z" fill="#50EA97"/>
<path d="M97.675 141.308C100.293 141.308 102.416 139.185 102.416 136.567C102.416 133.949 100.293 131.826 97.675 131.826C95.0566 131.826 92.9341 133.949 92.9341 136.567C92.9341 139.185 95.0566 141.308 97.675 141.308Z" fill="#50EA97"/>
<path d="M117.119 142.118C118.217 142.118 119.29 141.793 120.203 141.183C121.116 140.573 121.827 139.706 122.247 138.691C122.668 137.677 122.777 136.561 122.563 135.484C122.349 134.407 121.82 133.418 121.044 132.642C120.268 131.865 119.278 131.337 118.202 131.122C117.125 130.908 116.009 131.018 114.994 131.438C113.98 131.858 113.113 132.57 112.503 133.483C111.893 134.396 111.567 135.469 111.567 136.567C111.567 138.039 112.152 139.451 113.193 140.492C114.234 141.533 115.646 142.118 117.119 142.118Z" fill="#50EA97"/>
<path d="M136.566 142.875C140.05 142.875 142.874 140.051 142.874 136.567C142.874 133.083 140.05 130.259 136.566 130.259C133.083 130.259 130.259 133.083 130.259 136.567C130.259 140.051 133.083 142.875 136.566 142.875Z" fill="#50EA97"/>
<path d="M156.006 143.415C157.361 143.415 158.685 143.013 159.811 142.261C160.937 141.508 161.815 140.439 162.333 139.188C162.851 137.936 162.987 136.559 162.723 135.231C162.458 133.903 161.806 132.683 160.849 131.725C159.891 130.767 158.671 130.115 157.342 129.851C156.014 129.586 154.637 129.722 153.386 130.24C152.134 130.759 151.065 131.636 150.313 132.763C149.56 133.889 149.158 135.213 149.158 136.567C149.158 138.383 149.88 140.125 151.164 141.409C152.448 142.693 154.19 143.415 156.006 143.415Z" fill="#50EA97"/>
<path d="M175.438 143.685C176.846 143.685 178.222 143.267 179.392 142.485C180.563 141.703 181.475 140.591 182.014 139.291C182.553 137.99 182.694 136.559 182.419 135.178C182.145 133.797 181.467 132.529 180.471 131.533C179.476 130.538 178.207 129.86 176.827 129.585C175.446 129.311 174.015 129.452 172.714 129.99C171.413 130.529 170.302 131.441 169.519 132.612C168.737 133.783 168.32 135.159 168.32 136.567C168.32 138.454 169.07 140.265 170.405 141.6C171.74 142.935 173.55 143.685 175.438 143.685Z" fill="#50EA97"/>
<path d="M0.473809 156.449C0.58844 156.449 0.698373 156.404 0.779429 156.323C0.860486 156.242 0.906024 156.132 0.906024 156.017C0.917154 155.955 0.9145 155.891 0.898255 155.83C0.882009 155.769 0.85257 155.712 0.812003 155.664C0.771436 155.615 0.720725 155.576 0.663459 155.55C0.606193 155.523 0.543762 155.509 0.480558 155.509C0.417354 155.509 0.354924 155.523 0.297658 155.55C0.240392 155.576 0.18968 155.615 0.149114 155.664C0.108547 155.712 0.0791072 155.769 0.0628621 155.83C0.046617 155.891 0.043963 155.955 0.0550923 156.017C0.0532812 156.073 0.0627783 156.129 0.0830081 156.182C0.103238 156.234 0.133793 156.282 0.172856 156.322C0.211919 156.362 0.258694 156.394 0.310395 156.416C0.362096 156.438 0.417668 156.449 0.473809 156.449Z" fill="#50EA97"/>
<path d="M19.921 157.354C20.1881 157.354 20.4493 157.275 20.6714 157.126C20.8935 156.978 21.0666 156.767 21.1689 156.52C21.2711 156.273 21.2978 156.002 21.2457 155.74C21.1936 155.478 21.065 155.237 20.8761 155.048C20.6872 154.859 20.4465 154.731 20.1845 154.679C19.9225 154.626 19.6509 154.653 19.4041 154.755C19.1573 154.858 18.9464 155.031 18.7979 155.253C18.6495 155.475 18.5703 155.736 18.5703 156.003C18.5703 156.362 18.7126 156.705 18.9659 156.958C19.2192 157.212 19.5628 157.354 19.921 157.354Z" fill="#50EA97"/>
<path d="M39.362 158.326C39.8215 158.326 40.2706 158.19 40.6527 157.934C41.0347 157.679 41.3325 157.316 41.5083 156.892C41.6841 156.467 41.7301 156 41.6405 155.549C41.5509 155.099 41.3296 154.685 41.0047 154.36C40.6798 154.035 40.2658 153.814 39.8152 153.724C39.3645 153.634 38.8974 153.68 38.4729 153.856C38.0484 154.032 37.6856 154.33 37.4303 154.712C37.1751 155.094 37.0388 155.543 37.0388 156.003C37.0388 156.619 37.2836 157.21 37.7193 157.645C38.1549 158.081 38.7458 158.326 39.362 158.326Z" fill="#50EA97"/>
<path d="M58.8082 159.231C60.591 159.231 62.0363 157.786 62.0363 156.003C62.0363 154.22 60.591 152.775 58.8082 152.775C57.0254 152.775 55.5801 154.22 55.5801 156.003C55.5801 157.786 57.0254 159.231 58.8082 159.231Z" fill="#50EA97"/>
<path d="M78.2475 160.163C79.0703 160.163 79.8746 159.919 80.5587 159.462C81.2428 159.004 81.776 158.355 82.0909 157.595C82.4058 156.834 82.4881 155.998 82.3276 155.191C82.1671 154.384 81.7709 153.643 81.1891 153.061C80.6073 152.479 79.866 152.083 79.0591 151.922C78.2521 151.762 77.4156 151.844 76.6555 152.159C75.8953 152.474 75.2456 153.007 74.7885 153.691C74.3314 154.376 74.0874 155.18 74.0874 156.003C74.0874 157.106 74.5257 158.164 75.3059 158.944C76.086 159.724 77.1442 160.163 78.2475 160.163Z" fill="#50EA97"/>
<path d="M97.6793 161.068C98.6811 161.068 99.6603 160.771 100.493 160.214C101.326 159.658 101.975 158.867 102.359 157.941C102.742 157.016 102.842 155.997 102.647 155.015C102.452 154.032 101.969 153.13 101.261 152.421C100.552 151.713 99.65 151.231 98.6674 151.035C97.6849 150.84 96.6665 150.94 95.741 151.323C94.8155 151.707 94.0244 152.356 93.4679 153.189C92.9113 154.022 92.6143 155.001 92.6143 156.003C92.6143 157.346 93.1479 158.634 94.0978 159.584C95.0477 160.534 96.336 161.068 97.6793 161.068Z" fill="#50EA97"/>
<path d="M117.12 161.987C118.303 161.987 119.46 161.636 120.444 160.978C121.428 160.321 122.195 159.386 122.648 158.293C123.101 157.2 123.219 155.997 122.988 154.836C122.757 153.675 122.187 152.609 121.351 151.772C120.514 150.935 119.448 150.366 118.287 150.135C117.126 149.904 115.923 150.022 114.83 150.475C113.737 150.928 112.802 151.695 112.145 152.679C111.487 153.663 111.136 154.82 111.136 156.003C111.136 157.59 111.767 159.112 112.889 160.234C114.011 161.356 115.533 161.987 117.12 161.987Z" fill="#50EA97"/>
<path d="M136.555 162.851C137.91 162.854 139.236 162.455 140.364 161.704C141.491 160.953 142.371 159.884 142.892 158.633C143.412 157.382 143.55 156.005 143.287 154.676C143.024 153.347 142.373 152.125 141.416 151.166C140.459 150.207 139.239 149.553 137.91 149.288C136.581 149.023 135.203 149.158 133.951 149.676C132.699 150.193 131.629 151.071 130.876 152.198C130.123 153.324 129.721 154.648 129.721 156.003C129.721 157.817 130.441 159.557 131.722 160.841C133.003 162.125 134.742 162.848 136.555 162.851Z" fill="#50EA97"/>
<path d="M156.003 163.661C157.517 163.661 158.998 163.212 160.258 162.371C161.517 161.529 162.499 160.333 163.078 158.934C163.658 157.534 163.809 155.994 163.514 154.509C163.218 153.023 162.489 151.659 161.418 150.588C160.347 149.517 158.982 148.787 157.497 148.492C156.011 148.196 154.471 148.348 153.072 148.928C151.673 149.507 150.477 150.489 149.635 151.748C148.794 153.008 148.344 154.488 148.344 156.003C148.343 157.009 148.54 158.006 148.924 158.936C149.308 159.866 149.872 160.711 150.584 161.422C151.295 162.134 152.14 162.698 153.07 163.082C154 163.466 154.997 163.663 156.003 163.661Z" fill="#50EA97"/>
<path d="M175.441 164.039C177.03 164.039 178.584 163.568 179.906 162.685C181.227 161.802 182.257 160.547 182.866 159.078C183.474 157.61 183.633 155.994 183.323 154.435C183.013 152.876 182.247 151.444 181.123 150.32C180 149.196 178.568 148.431 177.009 148.12C175.45 147.81 173.834 147.97 172.365 148.578C170.897 149.186 169.642 150.216 168.759 151.538C167.876 152.859 167.404 154.413 167.404 156.003C167.422 158.129 168.274 160.162 169.778 161.666C171.281 163.169 173.315 164.021 175.441 164.039Z" fill="#50EA97"/>
<path d="M0.473356 175.926C0.543063 175.937 0.614484 175.934 0.682658 175.915C0.750831 175.896 0.814117 175.863 0.868093 175.817C0.922069 175.772 0.965442 175.715 0.995193 175.651C1.02494 175.587 1.04036 175.517 1.04036 175.446C1.04036 175.375 1.02494 175.306 0.995193 175.241C0.965442 175.177 0.922069 175.12 0.868093 175.075C0.814117 175.029 0.750831 174.996 0.682658 174.977C0.614484 174.958 0.543063 174.955 0.473356 174.967C0.359994 174.986 0.257063 175.044 0.182832 175.132C0.108601 175.22 0.0678711 175.331 0.0678711 175.446C0.0678711 175.561 0.108601 175.672 0.182832 175.76C0.257063 175.848 0.359994 175.907 0.473356 175.926Z" fill="#50EA97"/>
<path d="M19.9267 176.844C20.7025 176.844 21.3314 176.215 21.3314 175.439C21.3314 174.663 20.7025 174.034 19.9267 174.034C19.1509 174.034 18.522 174.663 18.522 175.439C18.522 176.215 19.1509 176.844 19.9267 176.844Z" fill="#50EA97"/>
<path d="M39.3579 177.816C39.8281 177.816 40.2877 177.677 40.6786 177.415C41.0695 177.154 41.3742 176.783 41.5541 176.349C41.7341 175.914 41.7811 175.436 41.6894 174.975C41.5977 174.514 41.3713 174.09 41.0388 173.758C40.7064 173.426 40.2828 173.199 39.8217 173.107C39.3605 173.016 38.8826 173.063 38.4482 173.243C38.0138 173.423 37.6426 173.727 37.3813 174.118C37.1201 174.509 36.9807 174.969 36.9807 175.439C36.9807 176.069 37.2312 176.674 37.677 177.12C38.1228 177.566 38.7274 177.816 39.3579 177.816Z" fill="#50EA97"/>
<path d="M58.8049 178.775C60.6474 178.775 62.1411 177.282 62.1411 175.439C62.1411 173.597 60.6474 172.103 58.8049 172.103C56.9624 172.103 55.4688 173.597 55.4688 175.439C55.4688 177.282 56.9624 178.775 58.8049 178.775Z" fill="#50EA97"/>
<path d="M78.2442 179.707C79.0884 179.707 79.9136 179.457 80.6155 178.988C81.3174 178.519 81.8644 177.853 82.1875 177.073C82.5105 176.293 82.595 175.435 82.4303 174.607C82.2657 173.779 81.8592 173.018 81.2623 172.421C80.6653 171.824 79.9048 171.418 79.0769 171.253C78.249 171.088 77.3908 171.173 76.6109 171.496C75.831 171.819 75.1644 172.366 74.6954 173.068C74.2264 173.77 73.9761 174.595 73.9761 175.439C73.9743 176 74.0835 176.556 74.2973 177.075C74.5112 177.593 74.8255 178.065 75.2222 178.461C75.6189 178.858 76.0901 179.172 76.6088 179.386C77.1274 179.6 77.6832 179.709 78.2442 179.707Z" fill="#50EA97"/>
<path d="M97.6766 180.68C98.7136 180.683 99.7282 180.378 100.592 179.804C101.455 179.229 102.129 178.412 102.528 177.455C102.927 176.497 103.032 175.443 102.832 174.426C102.631 173.408 102.133 172.473 101.401 171.739C100.668 171.005 99.7344 170.504 98.7175 170.301C97.7005 170.097 96.6461 170.2 95.6877 170.597C94.7293 170.993 93.9101 171.665 93.3336 172.527C92.7572 173.389 92.4495 174.403 92.4495 175.44C92.4495 176.827 92.9997 178.158 93.9796 179.141C94.9595 180.123 96.289 180.677 97.6766 180.68Z" fill="#50EA97"/>
<path d="M117.131 181.584C120.526 181.584 123.277 178.833 123.277 175.439C123.277 172.045 120.526 169.293 117.131 169.293C113.737 169.293 110.986 172.045 110.986 175.439C110.986 178.833 113.737 181.584 117.131 181.584Z" fill="#50EA97"/>
<path d="M136.554 182.557C137.963 182.56 139.34 182.145 140.513 181.364C141.685 180.584 142.599 179.473 143.14 178.173C143.681 176.872 143.824 175.441 143.551 174.059C143.278 172.677 142.601 171.408 141.606 170.411C140.611 169.414 139.343 168.735 137.961 168.459C136.58 168.183 135.148 168.323 133.847 168.862C132.545 169.4 131.433 170.312 130.65 171.483C129.868 172.654 129.45 174.031 129.45 175.439C129.45 177.325 130.198 179.133 131.53 180.468C132.862 181.802 134.669 182.554 136.554 182.557Z" fill="#50EA97"/>
<path d="M156.008 183.476C160.446 183.476 164.044 179.878 164.044 175.44C164.044 171.001 160.446 167.403 156.008 167.403C151.57 167.403 147.971 171.001 147.971 175.44C147.971 179.878 151.57 183.476 156.008 183.476Z" fill="#50EA97"/>
<path d="M175.44 184.125C177.158 184.125 178.837 183.615 180.265 182.661C181.693 181.707 182.806 180.35 183.464 178.763C184.121 177.176 184.293 175.43 183.958 173.746C183.623 172.061 182.796 170.513 181.581 169.299C180.366 168.084 178.819 167.257 177.134 166.922C175.45 166.587 173.703 166.759 172.116 167.416C170.529 168.073 169.173 169.187 168.219 170.615C167.264 172.043 166.755 173.722 166.755 175.44C166.755 177.743 167.67 179.952 169.299 181.581C170.928 183.21 173.137 184.125 175.44 184.125Z" fill="#50EA97"/>
<path d="M0.473809 195.321C0.530568 195.321 0.586773 195.31 0.639212 195.288C0.69165 195.266 0.739294 195.234 0.779429 195.194C0.819564 195.154 0.8514 195.106 0.873121 195.054C0.894842 195.002 0.906024 194.945 0.906024 194.889C0.917154 194.826 0.9145 194.763 0.898255 194.701C0.882009 194.64 0.85257 194.584 0.812003 194.535C0.771436 194.487 0.720725 194.448 0.663459 194.421C0.606193 194.394 0.543762 194.38 0.480558 194.38C0.417354 194.38 0.354924 194.394 0.297658 194.421C0.240392 194.448 0.18968 194.487 0.149114 194.535C0.108547 194.584 0.0791072 194.64 0.0628621 194.701C0.046617 194.763 0.043963 194.826 0.0550923 194.889C0.0550374 195.001 0.0987171 195.109 0.176875 195.19C0.255033 195.27 0.361535 195.317 0.473809 195.321Z" fill="#50EA97"/>
<path d="M19.921 196.24C20.6669 196.24 21.2717 195.635 21.2717 194.889C21.2717 194.143 20.6669 193.539 19.921 193.539C19.175 193.539 18.5703 194.143 18.5703 194.889C18.5703 195.635 19.175 196.24 19.921 196.24Z" fill="#50EA97"/>
<path d="M39.362 197.198C39.8221 197.198 40.2718 197.062 40.6541 196.806C41.0364 196.55 41.3342 196.186 41.5096 195.761C41.685 195.336 41.7302 194.868 41.6395 194.417C41.5488 193.966 41.3262 193.552 40.9999 193.228C40.6736 192.903 40.2584 192.683 39.8069 192.595C39.3554 192.507 38.8878 192.555 38.4636 192.733C38.0393 192.911 37.6774 193.211 37.4238 193.594C37.1702 193.978 37.0362 194.429 37.0389 194.889C37.0389 195.193 37.099 195.495 37.2159 195.776C37.3329 196.057 37.5042 196.312 37.7201 196.527C37.936 196.741 38.1922 196.911 38.474 197.026C38.7558 197.142 39.0576 197.2 39.362 197.198Z" fill="#50EA97"/>
<path d="M58.8082 198.117C60.591 198.117 62.0363 196.672 62.0363 194.889C62.0363 193.107 60.591 191.661 58.8082 191.661C57.0254 191.661 55.5801 193.107 55.5801 194.889C55.5801 196.672 57.0254 198.117 58.8082 198.117Z" fill="#50EA97"/>
<path d="M78.2475 199.037C79.0709 199.037 79.8757 198.792 80.5601 198.335C81.2445 197.877 81.7777 197.226 82.0922 196.465C82.4067 195.704 82.4882 194.867 82.3266 194.06C82.165 193.253 81.7675 192.511 81.1843 191.93C80.6012 191.349 79.8586 190.954 79.0508 190.795C78.2429 190.636 77.406 190.72 76.6461 191.037C75.8862 191.354 75.2374 191.889 74.7819 192.575C74.3265 193.261 74.0848 194.067 74.0874 194.89C74.091 195.991 74.5309 197.046 75.3106 197.823C76.0904 198.6 77.1465 199.037 78.2475 199.037Z" fill="#50EA97"/>
<path d="M97.6801 200.009C98.6925 200.009 99.6823 199.708 100.524 199.146C101.366 198.583 102.022 197.784 102.409 196.849C102.797 195.913 102.898 194.884 102.701 193.891C102.503 192.898 102.016 191.986 101.3 191.27C100.584 190.554 99.6718 190.066 98.6788 189.869C97.6858 189.671 96.6565 189.773 95.7211 190.16C94.7857 190.548 93.9862 191.204 93.4238 192.046C92.8613 192.887 92.561 193.877 92.561 194.89C92.561 196.247 93.1004 197.549 94.0604 198.509C95.0204 199.469 96.3224 200.009 97.6801 200.009Z" fill="#50EA97"/>
<path d="M117.135 200.926C120.469 200.926 123.172 198.223 123.172 194.889C123.172 191.554 120.469 188.851 117.135 188.851C113.801 188.851 111.097 191.554 111.097 194.889C111.097 198.223 113.801 200.926 117.135 200.926Z" fill="#50EA97"/>
<path d="M136.556 201.791C137.922 201.794 139.258 201.392 140.394 200.635C141.531 199.878 142.418 198.801 142.942 197.54C143.467 196.279 143.605 194.891 143.341 193.551C143.076 192.212 142.42 190.98 141.455 190.014C140.49 189.047 139.26 188.389 137.921 188.121C136.582 187.854 135.193 187.99 133.932 188.512C132.67 189.034 131.591 189.918 130.832 191.054C130.073 192.189 129.668 193.524 129.668 194.89C129.668 196.718 130.393 198.471 131.684 199.765C132.976 201.059 134.728 201.788 136.556 201.791Z" fill="#50EA97"/>
<path d="M156.003 202.548C157.517 202.548 158.998 202.099 160.258 201.257C161.517 200.416 162.499 199.22 163.078 197.82C163.658 196.421 163.809 194.881 163.514 193.395C163.218 191.91 162.489 190.545 161.418 189.474C160.347 188.403 158.982 187.674 157.497 187.378C156.011 187.083 154.471 187.235 153.072 187.814C151.673 188.394 150.477 189.375 149.635 190.635C148.794 191.894 148.344 193.375 148.344 194.89C148.343 195.896 148.54 196.892 148.924 197.822C149.308 198.752 149.872 199.597 150.584 200.309C151.295 201.02 152.14 201.584 153.07 201.969C154 202.353 154.997 202.55 156.003 202.548Z" fill="#50EA97"/>
<path d="M175.44 202.966C177.043 202.966 178.61 202.49 179.943 201.6C181.276 200.709 182.314 199.444 182.928 197.963C183.541 196.482 183.701 194.853 183.389 193.281C183.076 191.709 182.304 190.265 181.171 189.131C180.038 187.998 178.594 187.226 177.021 186.913C175.449 186.601 173.82 186.761 172.339 187.374C170.858 187.988 169.593 189.027 168.702 190.359C167.812 191.692 167.336 193.259 167.336 194.862C167.336 197.011 168.19 199.072 169.71 200.592C171.23 202.112 173.291 202.966 175.44 202.966Z" fill="#50EA97"/>
<path d="M0.488957 214.65C0.667987 214.65 0.813119 214.505 0.813119 214.326C0.813119 214.147 0.667987 214.001 0.488957 214.001C0.309927 214.001 0.164795 214.147 0.164795 214.326C0.164795 214.505 0.309927 214.65 0.488957 214.65Z" fill="#50EA97"/>
<path d="M19.9237 215.514C20.5801 215.514 21.1123 214.982 21.1123 214.325C21.1123 213.669 20.5801 213.137 19.9237 213.137C19.2673 213.137 18.7351 213.669 18.7351 214.325C18.7351 214.982 19.2673 215.514 19.9237 215.514Z" fill="#50EA97"/>
<path d="M39.3544 216.433C39.7711 216.433 40.1785 216.309 40.525 216.078C40.8715 215.846 41.1416 215.517 41.301 215.132C41.4605 214.747 41.5022 214.323 41.4209 213.915C41.3396 213.506 41.139 213.13 40.8443 212.836C40.5496 212.541 40.1742 212.34 39.7654 212.259C39.3567 212.178 38.933 212.219 38.548 212.379C38.163 212.538 37.8339 212.809 37.6024 213.155C37.3709 213.502 37.2473 213.909 37.2473 214.326C37.2473 214.884 37.4693 215.42 37.8645 215.815C38.2596 216.211 38.7955 216.433 39.3544 216.433Z" fill="#50EA97"/>
<path d="M58.8101 217.338C60.4736 217.338 61.8221 215.989 61.8221 214.326C61.8221 212.662 60.4736 211.314 58.8101 211.314C57.1466 211.314 55.7981 212.662 55.7981 214.326C55.7981 215.989 57.1466 217.338 58.8101 217.338Z" fill="#50EA97"/>
<path d="M78.2494 218.256C79.0262 218.253 79.7848 218.02 80.4293 217.587C81.0739 217.153 81.5756 216.539 81.871 215.82C82.1664 215.102 82.2424 214.312 82.0892 213.55C81.936 212.789 81.5606 212.09 81.0104 211.542C80.4602 210.993 79.7598 210.62 78.9977 210.47C78.2357 210.319 77.4461 210.398 76.7287 210.696C76.0113 210.993 75.3982 211.497 74.9669 212.143C74.5356 212.789 74.3054 213.549 74.3054 214.325C74.3054 214.843 74.4075 215.355 74.6059 215.833C74.8043 216.311 75.095 216.744 75.4614 217.109C75.8278 217.475 76.2627 217.764 76.7411 217.961C77.2195 218.157 77.7321 218.258 78.2494 218.256Z" fill="#50EA97"/>
<path d="M97.6853 219.12C100.333 219.12 102.48 216.973 102.48 214.325C102.48 211.677 100.333 209.53 97.6853 209.53C95.0371 209.53 92.8904 211.677 92.8904 214.325C92.8904 216.973 95.0371 219.12 97.6853 219.12Z" fill="#50EA97"/>
<path d="M117.119 219.93C118.228 219.93 119.312 219.601 120.233 218.985C121.155 218.369 121.874 217.494 122.298 216.47C122.722 215.445 122.833 214.318 122.617 213.231C122.401 212.144 121.867 211.145 121.083 210.361C120.299 209.577 119.3 209.043 118.213 208.827C117.125 208.611 115.998 208.722 114.974 209.146C113.95 209.57 113.074 210.289 112.459 211.211C111.843 212.132 111.514 213.216 111.514 214.325C111.514 215.811 112.104 217.237 113.156 218.288C114.207 219.339 115.633 219.93 117.119 219.93Z" fill="#50EA97"/>
<path d="M136.567 220.687C140.081 220.687 142.929 217.839 142.929 214.326C142.929 210.812 140.081 207.964 136.567 207.964C133.054 207.964 130.206 210.812 130.206 214.326C130.206 217.839 133.054 220.687 136.567 220.687Z" fill="#50EA97"/>
<path d="M156.003 221.281C157.379 221.281 158.724 220.873 159.868 220.109C161.012 219.344 161.903 218.258 162.43 216.987C162.956 215.716 163.094 214.317 162.825 212.968C162.557 211.618 161.895 210.379 160.922 209.406C159.949 208.433 158.709 207.771 157.36 207.503C156.011 207.234 154.612 207.372 153.341 207.898C152.07 208.425 150.984 209.316 150.219 210.46C149.455 211.604 149.047 212.949 149.047 214.325C149.051 216.169 149.785 217.936 151.088 219.24C152.392 220.543 154.159 221.277 156.003 221.281Z" fill="#50EA97"/>
<path d="M175.439 221.498C176.857 221.498 178.244 221.077 179.423 220.289C180.603 219.501 181.522 218.381 182.065 217.07C182.608 215.76 182.75 214.318 182.473 212.927C182.196 211.535 181.513 210.258 180.51 209.254C179.507 208.251 178.229 207.568 176.838 207.292C175.447 207.015 174.005 207.157 172.694 207.7C171.384 208.243 170.263 209.162 169.475 210.341C168.687 211.521 168.267 212.907 168.267 214.326C168.267 216.228 169.022 218.052 170.367 219.397C171.712 220.742 173.537 221.498 175.439 221.498Z" fill="#50EA97"/>
<path d="M0.481905 233.924C0.57142 233.924 0.643986 233.852 0.643986 233.762C0.643986 233.673 0.57142 233.6 0.481905 233.6C0.39239 233.6 0.319824 233.673 0.319824 233.762C0.319824 233.852 0.39239 233.924 0.481905 233.924Z" fill="#50EA97"/>
<path d="M19.9248 234.68C20.1065 234.68 20.284 234.626 20.4351 234.525C20.5861 234.424 20.7038 234.281 20.7734 234.113C20.8429 233.945 20.8611 233.761 20.8256 233.582C20.7902 233.404 20.7027 233.241 20.5743 233.112C20.4458 232.984 20.2822 232.896 20.104 232.861C19.9258 232.825 19.7412 232.844 19.5733 232.913C19.4055 232.983 19.2621 233.1 19.1611 233.251C19.0602 233.402 19.0063 233.58 19.0063 233.762C19.0063 234.005 19.1031 234.239 19.2754 234.411C19.4476 234.583 19.6812 234.68 19.9248 234.68Z" fill="#50EA97"/>
<path d="M39.3596 235.545C40.3442 235.545 41.1424 234.746 41.1424 233.762C41.1424 232.777 40.3442 231.979 39.3596 231.979C38.3749 231.979 37.5767 232.777 37.5767 233.762C37.5767 234.746 38.3749 235.545 39.3596 235.545Z" fill="#50EA97"/>
<path d="M58.8041 236.409C60.2661 236.409 61.4514 235.224 61.4514 233.762C61.4514 232.3 60.2661 231.115 58.8041 231.115C57.342 231.115 56.1567 232.3 56.1567 233.762C56.1567 235.224 57.342 236.409 58.8041 236.409Z" fill="#50EA97"/>
<path d="M78.2446 237.26C80.1766 237.26 81.7428 235.693 81.7428 233.761C81.7428 231.829 80.1766 230.263 78.2446 230.263C76.3126 230.263 74.7463 231.829 74.7463 233.761C74.7463 235.693 76.3126 237.26 78.2446 237.26Z" fill="#50EA97"/>
<path d="M97.6837 238.07C100.063 238.07 101.992 236.141 101.992 233.761C101.992 231.381 100.063 229.452 97.6837 229.452C95.3041 229.452 93.375 231.381 93.375 233.761C93.375 236.141 95.3041 238.07 97.6837 238.07Z" fill="#50EA97"/>
<path d="M117.131 238.772C119.898 238.772 122.142 236.529 122.142 233.761C122.142 230.994 119.898 228.75 117.131 228.75C114.363 228.75 112.12 230.994 112.12 233.761C112.12 236.529 114.363 238.772 117.131 238.772Z" fill="#50EA97"/>
<path d="M136.553 239.421C137.672 239.421 138.766 239.089 139.697 238.467C140.628 237.845 141.353 236.962 141.781 235.927C142.21 234.893 142.322 233.755 142.104 232.658C141.885 231.56 141.346 230.551 140.555 229.76C139.763 228.969 138.755 228.43 137.657 228.211C136.559 227.993 135.421 228.105 134.387 228.533C133.353 228.962 132.469 229.687 131.847 230.618C131.225 231.548 130.894 232.642 130.894 233.762C130.892 234.505 131.037 235.242 131.321 235.93C131.605 236.617 132.021 237.242 132.547 237.767C133.073 238.293 133.698 238.71 134.385 238.994C135.073 239.278 135.809 239.423 136.553 239.421Z" fill="#50EA97"/>
<path d="M155.996 239.853C157.201 239.853 158.379 239.496 159.38 238.827C160.382 238.157 161.163 237.206 161.624 236.093C162.085 234.98 162.206 233.755 161.971 232.573C161.736 231.392 161.155 230.306 160.303 229.454C159.452 228.602 158.366 228.022 157.184 227.787C156.003 227.552 154.778 227.673 153.665 228.134C152.552 228.595 151.6 229.376 150.931 230.377C150.262 231.379 149.905 232.557 149.905 233.762C149.905 235.377 150.546 236.927 151.689 238.069C152.831 239.211 154.381 239.853 155.996 239.853Z" fill="#50EA97"/>
<path d="M175.441 240.016C178.895 240.016 181.695 237.216 181.695 233.762C181.695 230.308 178.895 227.508 175.441 227.508C171.987 227.508 169.187 230.308 169.187 233.762C169.187 237.216 171.987 240.016 175.441 240.016Z" fill="#50EA97"/>
<path d="M19.9197 253.752C20.218 253.752 20.4599 253.51 20.4599 253.212C20.4599 252.913 20.218 252.671 19.9197 252.671C19.6213 252.671 19.3794 252.913 19.3794 253.212C19.3794 253.51 19.6213 253.752 19.9197 253.752Z" fill="#50EA97"/>
<path d="M39.3642 254.616C40.14 254.616 40.7689 253.988 40.7689 253.212C40.7689 252.436 40.14 251.807 39.3642 251.807C38.5884 251.807 37.9595 252.436 37.9595 253.212C37.9595 253.988 38.5884 254.616 39.3642 254.616Z" fill="#50EA97"/>
<path d="M58.803 255.426C60.0264 255.426 61.0181 254.435 61.0181 253.211C61.0181 251.988 60.0264 250.996 58.803 250.996C57.5796 250.996 56.5879 251.988 56.5879 253.211C56.5879 254.435 57.5796 255.426 58.803 255.426Z" fill="#50EA97"/>
<path d="M78.2459 256.183C79.887 256.183 81.2174 254.852 81.2174 253.211C81.2174 251.57 79.887 250.24 78.2459 250.24C76.6048 250.24 75.2744 251.57 75.2744 253.211C75.2744 254.852 76.6048 256.183 78.2459 256.183Z" fill="#50EA97"/>
<path d="M97.6834 256.872C98.4106 256.872 99.1214 256.656 99.7259 256.252C100.33 255.848 100.801 255.273 101.079 254.601C101.357 253.929 101.428 253.19 101.286 252.477C101.143 251.764 100.792 251.109 100.276 250.596C99.7612 250.083 99.1053 249.734 98.3918 249.593C97.6783 249.453 96.9392 249.528 96.2681 249.808C95.597 250.088 95.0242 250.561 94.6221 251.167C94.2201 251.773 94.0069 252.485 94.0095 253.212C94.0095 253.694 94.1047 254.171 94.2895 254.616C94.4743 255.061 94.7451 255.465 95.0864 255.805C95.4277 256.145 95.8328 256.414 96.2785 256.597C96.7241 256.781 97.2016 256.874 97.6834 256.872Z" fill="#50EA97"/>
<path d="M117.116 257.521C117.972 257.523 118.81 257.272 119.523 256.798C120.235 256.324 120.792 255.649 121.12 254.859C121.449 254.069 121.536 253.198 121.37 252.359C121.203 251.519 120.791 250.748 120.186 250.142C119.581 249.537 118.809 249.125 117.97 248.959C117.13 248.793 116.26 248.879 115.47 249.208C114.679 249.537 114.004 250.093 113.53 250.806C113.057 251.519 112.805 252.356 112.808 253.212C112.808 254.355 113.262 255.451 114.07 256.259C114.878 257.067 115.974 257.521 117.116 257.521Z" fill="#50EA97"/>
<path d="M136.566 258.06C139.244 258.06 141.415 255.889 141.415 253.211C141.415 250.533 139.244 248.362 136.566 248.362C133.888 248.362 131.717 250.533 131.717 253.211C131.717 255.889 133.888 258.06 136.566 258.06Z" fill="#50EA97"/>
<path d="M156.008 258.385C157.035 258.388 158.04 258.085 158.895 257.516C159.75 256.948 160.417 256.138 160.811 255.189C161.205 254.241 161.309 253.197 161.109 252.19C160.909 251.182 160.415 250.257 159.689 249.531C158.963 248.805 158.037 248.31 157.03 248.111C156.023 247.911 154.979 248.015 154.031 248.409C153.082 248.803 152.272 249.47 151.703 250.325C151.135 251.18 150.832 252.185 150.835 253.212C150.839 254.583 151.385 255.896 152.354 256.866C153.323 257.835 154.637 258.381 156.008 258.385Z" fill="#50EA97"/>
<path d="M175.442 258.493C176.49 258.495 177.516 258.187 178.389 257.606C179.261 257.025 179.942 256.198 180.345 255.23C180.747 254.262 180.853 253.197 180.649 252.168C180.445 251.14 179.941 250.195 179.199 249.454C178.458 248.713 177.513 248.208 176.485 248.004C175.457 247.801 174.391 247.907 173.423 248.309C172.455 248.711 171.628 249.392 171.048 250.265C170.467 251.138 170.158 252.163 170.161 253.211C170.161 254.612 170.717 255.955 171.708 256.946C172.698 257.936 174.041 258.493 175.442 258.493Z" fill="#50EA97"/>
<path d="M19.9194 272.81C20.0089 272.81 20.0815 272.737 20.0815 272.648C20.0815 272.558 20.0089 272.485 19.9194 272.485C19.8299 272.485 19.7573 272.558 19.7573 272.648C19.7573 272.737 19.8299 272.81 19.9194 272.81Z" fill="#50EA97"/>
<path d="M39.3617 273.512C39.8392 273.512 40.2262 273.125 40.2262 272.648C40.2262 272.171 39.8392 271.784 39.3617 271.784C38.8843 271.784 38.4973 272.171 38.4973 272.648C38.4973 273.125 38.8843 273.512 39.3617 273.512Z" fill="#50EA97"/>
<path d="M58.8101 274.322C59.7351 274.322 60.4849 273.572 60.4849 272.648C60.4849 271.723 59.7351 270.973 58.8101 270.973C57.8851 270.973 57.1353 271.723 57.1353 272.648C57.1353 273.572 57.8851 274.322 58.8101 274.322Z" fill="#50EA97"/>
<path d="M78.2427 275.011C78.7134 275.011 79.1736 274.871 79.5648 274.609C79.956 274.347 80.2607 273.975 80.4402 273.54C80.6197 273.105 80.666 272.626 80.5732 272.165C80.4804 271.703 80.2526 271.28 79.9188 270.948C79.585 270.616 79.1601 270.39 78.6981 270.3C78.2361 270.21 77.7577 270.259 77.3236 270.441C76.8895 270.623 76.5191 270.93 76.2596 271.323C76 271.715 75.8628 272.176 75.8655 272.647C75.8655 272.959 75.9271 273.267 76.0467 273.555C76.1663 273.842 76.3417 274.103 76.5626 274.323C76.7835 274.543 77.0457 274.717 77.334 274.835C77.6223 274.953 77.9312 275.012 78.2427 275.011Z" fill="#50EA97"/>
<path d="M97.6836 275.62C99.3247 275.62 100.655 274.289 100.655 272.648C100.655 271.007 99.3247 269.677 97.6836 269.677C96.0425 269.677 94.7122 271.007 94.7122 272.648C94.7122 274.289 96.0425 275.62 97.6836 275.62Z" fill="#50EA97"/>
<path d="M117.111 276.2C117.817 276.202 118.509 275.995 119.097 275.604C119.685 275.214 120.145 274.657 120.416 274.005C120.688 273.353 120.759 272.635 120.622 271.942C120.485 271.249 120.145 270.612 119.646 270.113C119.146 269.613 118.51 269.273 117.817 269.136C117.124 268.999 116.406 269.071 115.754 269.342C115.101 269.614 114.545 270.073 114.154 270.661C113.763 271.25 113.556 271.941 113.559 272.647C113.562 273.588 113.938 274.49 114.603 275.155C115.268 275.821 116.17 276.196 117.111 276.2Z" fill="#50EA97"/>
<path d="M136.553 276.578C137.331 276.589 138.094 276.368 138.747 275.945C139.399 275.521 139.911 274.913 140.218 274.199C140.525 273.484 140.613 272.694 140.471 271.929C140.329 271.164 139.963 270.459 139.419 269.902C138.876 269.346 138.179 268.963 137.418 268.802C136.657 268.641 135.865 268.71 135.143 269C134.421 269.29 133.802 269.787 133.362 270.429C132.923 271.071 132.685 271.829 132.676 272.607C132.666 273.647 133.068 274.649 133.794 275.393C134.521 276.138 135.513 276.564 136.553 276.578Z" fill="#50EA97"/>
<path d="M156.004 276.903C156.845 276.9 157.666 276.648 158.364 276.179C159.062 275.71 159.605 275.045 159.925 274.267C160.245 273.489 160.328 272.634 160.162 271.81C159.996 270.985 159.59 270.228 158.994 269.635C158.399 269.041 157.641 268.637 156.816 268.474C155.991 268.311 155.136 268.396 154.359 268.719C153.583 269.041 152.919 269.586 152.452 270.286C151.985 270.985 151.736 271.807 151.736 272.648C151.736 273.208 151.847 273.762 152.061 274.279C152.276 274.796 152.59 275.266 152.987 275.661C153.384 276.057 153.854 276.37 154.372 276.583C154.89 276.796 155.444 276.904 156.004 276.903Z" fill="#50EA97"/>
<path d="M175.439 277.01C176.302 277.01 177.146 276.755 177.863 276.275C178.581 275.796 179.14 275.114 179.47 274.317C179.8 273.52 179.887 272.643 179.718 271.797C179.55 270.95 179.134 270.173 178.524 269.563C177.914 268.953 177.137 268.537 176.29 268.369C175.444 268.201 174.567 268.287 173.77 268.617C172.973 268.947 172.291 269.507 171.812 270.224C171.333 270.941 171.077 271.785 171.077 272.648C171.077 273.805 171.536 274.914 172.354 275.733C173.173 276.551 174.282 277.01 175.439 277.01Z" fill="#50EA97"/>
<path d="M39.3591 292.408C39.5381 292.408 39.6832 292.263 39.6832 292.084C39.6832 291.905 39.5381 291.76 39.3591 291.76C39.18 291.76 39.0349 291.905 39.0349 292.084C39.0349 292.263 39.18 292.408 39.3591 292.408Z" fill="#50EA97"/>
<path d="M58.8112 293.111C59.3781 293.111 59.8377 292.651 59.8377 292.084C59.8377 291.517 59.3781 291.058 58.8112 291.058C58.2443 291.058 57.7847 291.517 57.7847 292.084C57.7847 292.651 58.2443 293.111 58.8112 293.111Z" fill="#50EA97"/>
<path d="M78.243 293.759C79.1679 293.759 79.9178 293.009 79.9178 292.084C79.9178 291.159 79.1679 290.409 78.243 290.409C77.318 290.409 76.5681 291.159 76.5681 292.084C76.5681 293.009 77.318 293.759 78.243 293.759Z" fill="#50EA97"/>
<path d="M97.6829 294.298C98.121 294.298 98.5493 294.168 98.9136 293.925C99.2778 293.682 99.5618 293.336 99.7294 292.931C99.8971 292.526 99.9409 292.081 99.8555 291.651C99.77 291.221 99.559 290.827 99.2492 290.517C98.9394 290.207 98.5448 289.996 98.1151 289.911C97.6854 289.825 97.24 289.869 96.8352 290.037C96.4305 290.204 96.0845 290.488 95.8411 290.853C95.5977 291.217 95.4678 291.645 95.4678 292.083C95.466 292.375 95.5221 292.664 95.6328 292.933C95.7435 293.203 95.9066 293.448 96.1126 293.654C96.3187 293.86 96.5636 294.023 96.8331 294.133C97.1027 294.244 97.3915 294.3 97.6829 294.298Z" fill="#50EA97"/>
<path d="M117.122 294.785C117.657 294.785 118.179 294.626 118.623 294.329C119.067 294.033 119.414 293.611 119.618 293.117C119.822 292.623 119.876 292.08 119.772 291.556C119.667 291.032 119.41 290.551 119.032 290.173C118.655 289.795 118.173 289.538 117.649 289.434C117.125 289.33 116.582 289.383 116.088 289.588C115.595 289.792 115.173 290.138 114.876 290.582C114.579 291.027 114.421 291.549 114.421 292.083C114.421 292.8 114.706 293.487 115.212 293.993C115.719 294.5 116.406 294.785 117.122 294.785Z" fill="#50EA97"/>
<path d="M136.566 295.15C138.259 295.15 139.632 293.777 139.632 292.084C139.632 290.391 138.259 289.018 136.566 289.018C134.873 289.018 133.5 290.391 133.5 292.084C133.5 293.777 134.873 295.15 136.566 295.15Z" fill="#50EA97"/>
<path d="M156.007 295.42C157.85 295.42 159.343 293.926 159.343 292.084C159.343 290.241 157.85 288.748 156.007 288.748C154.165 288.748 152.671 290.241 152.671 292.084C152.671 293.926 154.165 295.42 156.007 295.42Z" fill="#50EA97"/>
<path d="M175.436 295.487C176.11 295.49 176.769 295.293 177.331 294.92C177.892 294.548 178.33 294.017 178.59 293.396C178.85 292.774 178.919 292.089 178.789 291.428C178.66 290.767 178.336 290.159 177.861 289.682C177.385 289.204 176.779 288.879 176.118 288.746C175.458 288.614 174.773 288.681 174.15 288.938C173.527 289.195 172.995 289.631 172.62 290.191C172.246 290.751 172.046 291.41 172.046 292.084C172.044 292.53 172.13 292.972 172.3 293.385C172.469 293.798 172.719 294.173 173.034 294.49C173.349 294.806 173.723 295.057 174.135 295.228C174.548 295.399 174.99 295.487 175.436 295.487Z" fill="#50EA97"/>
<path d="M58.8112 311.844C58.9903 311.844 59.1354 311.699 59.1354 311.519C59.1354 311.34 58.9903 311.195 58.8112 311.195C58.6322 311.195 58.4871 311.34 58.4871 311.519C58.4871 311.699 58.6322 311.844 58.8112 311.844Z" fill="#50EA97"/>
<path d="M78.2472 312.438C78.4288 312.438 78.6064 312.384 78.7575 312.283C78.9085 312.182 79.0262 312.039 79.0957 311.871C79.1652 311.703 79.1834 311.519 79.148 311.341C79.1126 311.162 79.0251 310.999 78.8966 310.87C78.7682 310.742 78.6045 310.654 78.4264 310.619C78.2482 310.583 78.0635 310.602 77.8957 310.671C77.7279 310.741 77.5844 310.858 77.4835 311.009C77.3826 311.16 77.3287 311.338 77.3287 311.52C77.3269 311.641 77.3494 311.761 77.3949 311.873C77.4404 311.986 77.508 312.087 77.5937 312.173C77.6793 312.259 77.7813 312.326 77.8936 312.372C78.0058 312.417 78.1261 312.44 78.2472 312.438Z" fill="#50EA97"/>
<path d="M97.6816 312.924C98.4574 312.924 99.0863 312.295 99.0863 311.52C99.0863 310.744 98.4574 310.115 97.6816 310.115C96.9058 310.115 96.2769 310.744 96.2769 311.52C96.2769 312.295 96.9058 312.924 97.6816 312.924Z" fill="#50EA97"/>
<path d="M117.13 313.356C118.144 313.356 118.967 312.534 118.967 311.519C118.967 310.505 118.144 309.682 117.13 309.682C116.115 309.682 115.293 310.505 115.293 311.519C115.293 312.534 116.115 313.356 117.13 313.356Z" fill="#50EA97"/>
<path d="M136.554 313.735C136.993 313.737 137.422 313.61 137.788 313.368C138.155 313.126 138.441 312.781 138.61 312.377C138.78 311.972 138.826 311.526 138.742 311.096C138.658 310.665 138.448 310.269 138.139 309.958C137.83 309.647 137.435 309.435 137.005 309.348C136.575 309.262 136.129 309.305 135.723 309.472C135.318 309.639 134.971 309.923 134.727 310.288C134.483 310.652 134.353 311.081 134.353 311.52C134.351 311.81 134.406 312.098 134.516 312.366C134.626 312.635 134.788 312.879 134.993 313.085C135.197 313.291 135.441 313.454 135.709 313.566C135.977 313.677 136.264 313.735 136.554 313.735Z" fill="#50EA97"/>
<path d="M156.003 313.897C156.473 313.897 156.932 313.758 157.323 313.497C157.714 313.235 158.019 312.864 158.199 312.43C158.379 311.995 158.426 311.517 158.334 311.056C158.243 310.595 158.016 310.172 157.684 309.839C157.351 309.507 156.928 309.28 156.466 309.188C156.005 309.097 155.527 309.144 155.093 309.324C154.659 309.504 154.287 309.808 154.026 310.199C153.765 310.59 153.626 311.05 153.626 311.52C153.624 311.833 153.684 312.143 153.803 312.432C153.922 312.721 154.097 312.984 154.318 313.205C154.539 313.426 154.802 313.601 155.091 313.72C155.38 313.839 155.69 313.899 156.003 313.897Z" fill="#50EA97"/>
<path d="M175.442 314.005C175.933 314.005 176.414 313.859 176.823 313.586C177.231 313.313 177.55 312.925 177.738 312.471C177.926 312.017 177.975 311.517 177.879 311.035C177.783 310.553 177.547 310.11 177.199 309.762C176.852 309.415 176.409 309.178 175.927 309.082C175.445 308.986 174.945 309.035 174.491 309.224C174.037 309.412 173.648 309.73 173.375 310.139C173.102 310.548 172.957 311.028 172.957 311.52C172.957 312.179 173.218 312.811 173.684 313.277C174.151 313.743 174.783 314.005 175.442 314.005Z" fill="#50EA97"/>
<path d="M117.118 331.942C117.311 331.942 117.499 331.885 117.659 331.778C117.818 331.671 117.943 331.519 118.017 331.342C118.09 331.164 118.11 330.968 118.072 330.78C118.035 330.591 117.942 330.418 117.806 330.282C117.67 330.146 117.497 330.053 117.308 330.016C117.119 329.978 116.924 329.997 116.746 330.071C116.568 330.145 116.417 330.269 116.31 330.429C116.203 330.589 116.146 330.777 116.146 330.969C116.146 331.227 116.248 331.475 116.431 331.657C116.613 331.839 116.86 331.942 117.118 331.942Z" fill="#50EA97"/>
<path d="M136.556 332.199C136.802 332.201 137.045 332.13 137.251 331.995C137.457 331.859 137.619 331.665 137.714 331.438C137.81 331.21 137.836 330.959 137.788 330.717C137.741 330.475 137.622 330.252 137.448 330.077C137.273 329.903 137.05 329.784 136.808 329.737C136.566 329.689 136.315 329.715 136.087 329.811C135.86 329.906 135.666 330.068 135.53 330.274C135.395 330.481 135.324 330.723 135.326 330.97C135.33 331.294 135.461 331.605 135.69 331.835C135.92 332.065 136.231 332.195 136.556 332.199Z" fill="#50EA97"/>
<path d="M156.005 332.428C156.81 332.428 157.463 331.775 157.463 330.969C157.463 330.164 156.81 329.511 156.005 329.511C155.199 329.511 154.546 330.164 154.546 330.969C154.546 331.775 155.199 332.428 156.005 332.428Z" fill="#50EA97"/>
<path d="M175.438 332.483C176.274 332.483 176.951 331.806 176.951 330.97C176.951 330.135 176.274 329.457 175.438 329.457C174.603 329.457 173.925 330.135 173.925 330.97C173.925 331.806 174.603 332.483 175.438 332.483Z" fill="#50EA97"/>
</g>
<defs>
<clipPath id="clip0_106_1871">
<rect width="351" height="351" fill="white"/>
</clipPath>
</defs>
</svg>
